<svg width="590" height="441" viewBox="0 0 590 441" fill="none" xmlns="http://www.w3.org/2000/svg">
<g clip-path="url(#clip0_63_4478)">
<g opacity="0.5">
<path d="M145.6 330.806H135.142L140.529 306.566H150.986L145.6 330.806Z" fill="#B3CDFA"/>
<path d="M350.926 330.806H361.226L356 306.566H345.54L350.926 330.806Z" fill="#B3CDFA"/>
<path d="M369.621 209.605H125.32V316.864H369.62L369.621 209.605Z" fill="url(#paint0_linear_63_4478)"/>
<path d="M363.759 215.626H251.273V311.952H363.759V215.626Z" fill="#B3CDFA"/>
<g opacity="0.34">
<path d="M363.759 306.407L272.978 215.626H252.7L349.026 311.952H363.76L363.759 306.407Z" fill="#E3EDFE"/>
<path d="M327.479 215.626H280.741L363.759 298.644V251.907L327.479 215.626Z" fill="#E3EDFE"/>
</g>
<path d="M270.6 258.878H260.62V268.859H270.6V258.878Z" fill="#D1E1FC"/>
<path d="M260.62 258.878V259.353H270.285V268.859H270.602V258.878H260.62Z" fill="#E3EDFE"/>
<path d="M131.853 312.042H244.339V215.715H131.853V312.042Z" fill="#B3CDFA"/>
<g opacity="0.34">
<path d="M131.974 306.407L222.6 215.626H242.879L146.552 311.952H131.974V306.407Z" fill="#E3EDFE"/>
<path d="M168.255 215.626H214.992L131.974 298.644V251.907L168.255 215.626Z" fill="#E3EDFE"/>
</g>
<path d="M225.082 268.79H235.063V258.809H225.082V268.79Z" fill="#D1E1FC"/>
<path d="M234.954 258.878V259.353H225.29V268.859H224.973V258.878H234.954Z" fill="#E3EDFE"/>
</g>
<g opacity="0.5">
<path d="M208.5 209.13H220.7C221.739 209.129 222.767 208.916 223.721 208.504C224.675 208.091 225.534 207.488 226.247 206.732C226.959 205.975 227.509 205.081 227.863 204.103C228.217 203.126 228.367 202.087 228.305 201.05L224.505 132.132H204.852L201.052 201.05C200.972 202.078 201.105 203.112 201.443 204.086C201.781 205.061 202.316 205.955 203.015 206.713C203.714 207.472 204.562 208.078 205.506 208.493C206.449 208.909 207.469 209.126 208.5 209.13Z" fill="url(#paint1_linear_63_4478)"/>
<path d="M219.586 201.05L215.786 132.132H221.486L225.286 201.05C225.362 202.09 225.221 203.134 224.872 204.117C224.524 205.1 223.975 205.999 223.26 206.759C222.546 207.518 221.682 208.121 220.722 208.53C219.763 208.938 218.729 209.142 217.686 209.13H211.986C213.029 209.142 214.063 208.938 215.022 208.53C215.982 208.122 216.846 207.519 217.561 206.759C218.275 206 218.824 205.1 219.173 204.117C219.521 203.134 219.662 202.09 219.586 201.05Z" fill="#B3CDFA"/>
</g>
<g opacity="0.5">
<path d="M261.571 184.1V180.139H258.878V184.1H250.8V209.449H269.653V184.1H261.571Z" fill="url(#paint2_linear_63_4478)"/>
<path d="M268.067 184.1H265.532V209.29H268.067V184.1Z" fill="#B3CDFA"/>
</g>
<g opacity="0.5">
<path d="M282.009 191.069V188.059H280.109V191.069H274.247V209.447H287.873V191.069H282.009Z" fill="url(#paint3_linear_63_4478)"/>
<path d="M286.92 191.069H285.02V209.289H286.92V191.069Z" fill="#B3CDFA"/>
</g>
<path d="M61.788 52.547H26.617V63.32H61.788V52.547Z" fill="url(#paint4_linear_63_4478)"/>
<path d="M82.068 67.915H46.9V78.688H82.068V67.915Z" fill="url(#paint5_linear_63_4478)"/>
<path d="M113.437 128.171H67.337V142.271H113.437V128.171Z" fill="url(#paint6_linear_63_4478)"/>
<path d="M46.1 170.948H0V185.048H46.1V170.948Z" fill="url(#paint7_linear_63_4478)"/>
<path d="M488.445 226.082H453.273V236.856H488.445V226.082Z" fill="url(#paint8_linear_63_4478)"/>
<path d="M511.418 210.714H476.246V221.488H511.418V210.714Z" fill="url(#paint9_linear_63_4478)"/>
<path d="M476.246 35.647H441.074V46.421H476.246V35.647Z" fill="url(#paint10_linear_63_4478)"/>
<path d="M499.219 20.2791H464.047V31.0531H499.219V20.2791Z" fill="url(#paint11_linear_63_4478)"/>
<path d="M487.019 130.548H459.769V138.948H487.019V130.548Z" fill="url(#paint12_linear_63_4478)"/>
<path d="M502.863 142.43H475.612V150.83H502.863V142.43Z" fill="url(#paint13_linear_63_4478)"/>
<path d="M520.607 130.548H493.357V138.948H520.607V130.548Z" fill="url(#paint14_linear_63_4478)"/>
<path d="M54.5 182.672H111.061L155.9 326.37H79.374L54.5 182.672Z" fill="#6C98E3"/>
<path d="M85.4 335.083L70.661 440.6L75.889 440.758L103.298 331.758H85.712L85.4 335.083Z" fill="url(#paint15_linear_63_4478)"/>
<path d="M194.554 335.083L209.447 440.6L204.219 440.758L176.651 331.758H194.237L194.554 335.083Z" fill="url(#paint16_linear_63_4478)"/>
<path d="M199.149 319.557H122.943C112.688 319.563 102.73 316.11 94.6805 309.756C86.6306 303.403 80.9588 294.52 78.582 284.544L54.342 182.672H43.252L69.393 316.23C70.4499 321.545 73.3172 326.329 77.5063 329.767C81.6954 333.205 86.9469 335.083 92.366 335.083H206.754V327C206.719 325.009 205.902 323.111 204.479 321.718C203.055 320.325 201.141 319.549 199.149 319.557Z" fill="#B3CDFA"/>
<path d="M257.61 414.616L242.242 419.216L240.658 413.987C240.658 413.987 243.034 406.224 234.479 393.387C232.261 390.06 249.847 388.793 249.847 388.793C249.847 388.793 249.372 401.15 258.878 405.745C260.779 406.694 257.61 414.616 257.61 414.616Z" fill="#FFCEBD"/>
<g opacity="0.4">
<path d="M242.084 419.369L252.223 416.359C250.972 414.787 249.809 413.147 248.738 411.447C244.59 404.898 241.239 397.878 238.757 390.534C235.588 391.327 233.37 392.277 234.162 393.703C242.718 406.536 240.341 414.303 240.341 414.303L242.084 419.369Z" fill="#A58877"/>
</g>
<path d="M107.417 304.981L207.546 322.25C207.546 322.25 205.169 341.737 217.368 367.72C221.646 376.751 230.835 390.22 237.806 409.229L257.135 403.051L233.37 289.451C232.779 286.847 231.367 284.501 229.341 282.761C227.316 281.021 224.785 279.978 222.121 279.787L144.015 272.023L107.417 304.981Z" fill="url(#paint17_linear_63_4478)"/>
<g opacity="0.2">
<path d="M225.29 326.053C224.023 320.666 222.121 314.804 217.69 311.635C213.89 308.942 209.135 308.467 204.54 307.991C181.985 305.451 159.963 299.412 139.267 290.091L125.167 308.152L207.393 322.411C207.393 322.411 205.017 341.898 217.216 367.881C221.494 376.911 230.683 390.381 237.654 409.39L245.892 406.696C232.578 382.613 231.786 353.144 225.29 326.053Z" fill="#6C98E3"/>
</g>
<path d="M189.326 426.815L173.958 422.062L172.691 417.309C172.691 417.309 179.503 413.665 181.88 396.238C182.513 392.277 197.248 400.991 197.248 400.991C197.248 400.991 191.548 408.12 193.287 417.309C193.921 419.844 189.326 426.815 189.326 426.815Z" fill="#FFCEBD"/>
<g opacity="0.4">
<path d="M181.88 396.4C179.345 413.828 172.691 417.472 172.691 417.472L173.958 422.225L189.326 426.978C189.326 426.978 189.643 426.502 190.118 425.869C189.643 424.443 190.118 422.225 188.692 421.591C179.186 417.63 186.792 404.956 187.9 396.559C184.89 395.287 182.2 394.654 181.88 396.4Z" fill="#A58877"/>
</g>
<path d="M80.642 272.027V290.881C80.6347 294.753 81.392 298.588 82.8704 302.166C84.3487 305.745 86.519 308.996 89.2568 311.734C91.9946 314.472 95.246 316.642 98.8245 318.121C102.403 319.599 106.238 320.356 110.11 320.349H203.268C194.079 331.281 184.89 343.955 184.256 357.264C182.672 387.524 176.968 405.744 176.968 405.744L196.455 411.444L236.539 311.16C237.903 307.742 238.409 304.042 238.014 300.383C237.618 296.725 236.333 293.218 234.27 290.171C232.207 287.123 229.429 284.627 226.179 282.901C222.929 281.174 219.306 280.27 215.626 280.266H143.226L143.702 271.866H80.642V272.027Z" fill="url(#paint18_linear_63_4478)"/>
<path d="M171.106 417.309L166.037 430.3V440.6H229.251V437.748C229.243 436.501 228.818 435.292 228.042 434.316C227.267 433.339 226.186 432.651 224.973 432.361L214.834 429.985L193.6 417.309H192.174L191.698 418.101C191.096 419.023 190.274 419.781 189.306 420.307C188.338 420.833 187.254 421.109 186.153 421.112H179.024C177.763 421.118 176.526 420.764 175.46 420.09C174.393 419.417 173.541 418.453 173.004 417.312L171.106 417.309Z" fill="url(#paint19_linear_63_4478)"/>
<path d="M165.878 435.212V440.757H229.092V437.905C229.051 436.976 228.836 436.062 228.459 435.212H165.878Z" fill="white"/>
<path d="M238.44 414.933L239.232 428.875L243.51 438.222L302.288 412.715L301.02 410.338C300.512 409.215 299.644 408.294 298.554 407.72C297.464 407.146 296.213 406.953 295 407.17L284.7 409.229L258.876 405.744L257.608 406.219L257.45 408.437C257.383 409.234 257.095 409.997 256.619 410.641C256.144 411.284 255.499 411.783 254.756 412.081L246.043 415.881C245.062 416.297 243.965 416.35 242.949 416.031C241.933 415.711 241.063 415.04 240.497 414.138L238.44 414.933Z" fill="url(#paint20_linear_63_4478)"/>
<path d="M241.133 433.311L243.351 438.381L302.129 412.873L301.02 410.338C300.671 409.485 300.061 408.765 299.278 408.279L241.133 433.311Z" fill="white"/>
<g opacity="0.2">
<path d="M211.665 321.3C209.605 315.6 204.065 311.952 198.357 310.368C192.649 308.784 186.474 308.942 180.612 308.784C168.664 308.63 156.767 307.196 145.124 304.506C135.618 302.446 126.27 299.436 118.349 293.891C110.902 288.663 104.882 280.9 103.298 272.027H80.642V290.881C80.6347 294.753 81.392 298.588 82.8704 302.166C84.3487 305.745 86.519 308.996 89.2568 311.734C91.9946 314.472 95.246 316.642 98.8245 318.121C102.403 319.599 106.238 320.356 110.11 320.349H203.268C194.079 331.281 184.89 343.956 184.256 357.264C182.672 387.524 176.968 405.744 176.968 405.744L186.95 408.754C186.95 401.783 188.059 394.495 189.168 387.524C191.227 375.008 193.445 362.175 199.941 351.402C205.8 341.9 215.467 331.915 211.665 321.3Z" fill="#6C98E3"/>
</g>
<path d="M135.3 162.709L150.192 166.353C156.182 167.837 161.557 171.162 165.56 175.859L182.988 198.04L173.483 219.9L158.432 209.13L154.946 218.953L152.728 236.063C151.304 247.094 150.986 258.24 151.778 269.334V275.354C151.778 275.354 91.89 292.465 76.523 275.988L82.384 197.723L114.229 162.234L135.3 162.709Z" fill="white"/>
<g opacity="0.2">
<path d="M105.516 239.39C105.991 231.152 106.149 223.072 102.347 215.467C100.763 212.299 98.703 209.447 97.752 205.961C97.119 203.426 96.96 200.892 96.485 198.361C96.2956 197.067 95.8471 195.824 95.1666 194.708C94.486 193.591 93.5872 192.623 92.524 191.861C89.831 190.277 87.613 191.544 86.024 193.445C85.39 194.079 82.379 197.089 82.379 197.881C82.379 198.515 76.518 276.147 76.518 276.147C82.538 282.647 95.212 283.91 108.518 283.118C107.092 270.76 104.399 258.244 105.191 245.728C105.2 243.668 105.357 241.45 105.516 239.39Z" fill="#6C98E3"/>
</g>
<path d="M71.611 220.22L77.79 243.034C78.3459 244.951 79.5505 246.615 81.1978 247.742C82.8451 248.869 84.8328 249.389 86.821 249.213L155.263 243.985L192.653 250.956C192.968 251.014 193.294 250.973 193.584 250.837C193.874 250.701 194.115 250.478 194.272 250.198C194.429 249.919 194.495 249.597 194.46 249.279C194.426 248.96 194.292 248.66 194.079 248.421L192.811 247L176.968 236.068C176.18 235.474 175.253 235.092 174.275 234.959L155.263 232.424L94.742 228.939L94.425 218.799L71.611 220.22Z" fill="#FFCEBD"/>
<path d="M114.229 160.016L109.476 160.333C99.8096 160.83 90.4066 163.656 82.068 168.571C76.1844 172.031 71.5545 177.274 68.8486 183.54C66.1427 189.806 65.5012 196.771 67.017 203.426L70.977 220.379L94.267 218.953L112.487 178.394C112.487 178.394 120.25 163.5 114.229 160.016Z" fill="white"/>
<path d="M105.04 138.152C105.859 148.535 106.018 158.96 105.516 169.364C105.323 171.973 106.135 174.558 107.783 176.59C109.432 178.621 111.795 179.947 114.388 180.295C115.722 180.478 117.079 180.392 118.379 180.043C119.68 179.693 120.897 179.088 121.96 178.261C123.022 177.434 123.909 176.404 124.568 175.229C125.227 174.055 125.644 172.761 125.795 171.423C126.587 163.977 128.171 154.788 131.023 152.728L105.04 138.152Z" fill="#FFCEBD"/>
<g opacity="0.4">
<path d="M105.04 138.152C105.859 148.535 106.018 158.96 105.516 169.364C105.323 171.973 106.135 174.558 107.783 176.59C109.432 178.621 111.795 179.947 114.388 180.295C115.065 180.454 115.77 180.454 116.447 180.295C116.115 179.637 115.85 178.947 115.655 178.236C114.071 172.849 116.447 166.829 115.021 161.442C114.071 157.642 111.378 154.313 110.11 150.51C109.16 147.342 109.476 144.173 109.952 141.004L105.04 138.152Z" fill="#A58877"/>
</g>
<path d="M138.153 120.725C137.995 119.183 137.566 117.681 136.885 116.289C136.568 115.497 132.607 108.05 132.291 108.05L131.498 108.526C126.27 104.726 118.982 104.406 113.12 106.941C107.258 109.476 102.664 114.705 100.129 120.567C98.3972 124.809 97.6269 129.381 97.8735 133.956C98.12 138.531 99.3773 142.994 101.555 147.025C103.84 150.996 106.993 154.398 110.78 156.977C114.566 159.556 118.886 161.245 123.418 161.917C127.062 162.393 131.182 162.076 133.558 159.382C134.531 158.238 135.332 156.958 135.934 155.582C139.262 148.769 142.113 140.689 138.153 133.402C137.519 132.134 136.568 131.025 136.568 129.602C136.41 127.859 137.36 126.275 137.836 124.691C138.25 123.412 138.358 122.054 138.153 120.725Z" fill="#FFCEBD"/>
<g opacity="0.2">
<path d="M70.977 220.22L82.068 219.586V219.27C80.8 209.764 75.097 201.37 74.463 191.861C73.988 183.939 76.998 176.335 80.963 169.361C75.4535 172.943 71.177 178.131 68.7118 184.223C66.2466 190.315 65.7115 197.017 67.179 203.423L70.977 220.22Z" fill="#6C98E3"/>
</g>
<g opacity="0.4">
<path d="M155.263 243.826L192.178 250.639C192.158 249.786 191.882 248.958 191.386 248.263C189.486 245.411 185.365 245.411 182.038 245.411C177.416 245.305 172.83 244.558 168.413 243.193C163.818 241.925 159.541 240.024 154.788 239.074C148.451 237.806 141.955 238.123 135.459 238.598C126.745 239.232 118.032 239.707 109.159 240.341C104.406 240.658 99.653 240.975 95.059 239.866C90.465 238.757 86.029 236.066 83.969 231.944C82.069 228.144 82.384 223.706 81.909 219.428L71.609 220.062L77.788 242.876C78.3439 244.793 79.5485 246.457 81.1958 247.584C82.8431 248.711 84.8308 249.231 86.819 249.055L155.263 243.826Z" fill="#A58877"/>
</g>
<g opacity="0.4">
<path d="M136.727 129.439C136.568 127.696 137.519 126.112 137.994 124.527C138.287 123.228 138.341 121.886 138.153 120.567C137.995 119.025 137.566 117.523 136.885 116.131C136.568 115.338 132.607 107.892 132.291 107.892L131.498 108.367C128.846 106.482 125.716 105.384 122.468 105.199L115.021 116.289C115.338 119.141 117.873 120.883 120.408 121.989C123.577 123.415 126.745 124.683 129.914 126.426C130.715 126.862 131.46 127.394 132.132 128.01C132.663 128.89 133.039 129.854 133.241 130.862C133.716 132.103 134.355 133.275 135.141 134.347C136.092 135.456 137.518 136.882 136.726 138.308C136.409 138.942 135.775 139.259 135.3 139.734C133.557 141.477 133.557 144.17 134.032 146.546C134.508 148.764 134.983 152.246 136.567 153.993C140.528 148.448 141.479 139.1 138.31 133.238C137.529 132.093 136.99 130.8 136.727 129.439Z" fill="#A58877"/>
</g>
<path d="M147.025 108.209C144.173 103.456 137.519 100.287 133.083 98.861C131.326 98.2897 129.524 97.8659 127.696 97.594C124.134 96.9812 120.535 96.6106 116.923 96.485C112.011 96.326 106.623 96.643 103.456 100.285C102.03 101.87 101.079 100.444 99.178 100.602C97.5255 100.782 95.9999 101.573 94.901 102.82C93.158 104.72 92.366 107.415 91.732 109.95C89.6784 117.697 89.1936 125.777 90.306 133.714C91.1481 139.344 93.2612 144.708 96.485 149.4C98.069 151.777 103.931 159.7 107.417 155.737C108.684 154.312 107.892 152.094 106.941 150.192C105.041 146.073 103.614 141.32 104.723 137.042C104.806 136.27 105.14 135.546 105.674 134.983C106.046 134.681 106.482 134.468 106.948 134.358C107.414 134.248 107.899 134.245 108.367 134.349C109.287 134.569 110.117 135.067 110.744 135.775C112.452 137.299 113.573 139.373 113.912 141.637C114.863 147.974 105.674 154.787 113.754 159.537C117.398 161.596 123.26 162.547 127.379 162.547C131.657 162.389 137.679 161.913 140.846 158.586C144.173 155.101 143.381 147.179 142.113 142.901C141.955 142.426 141.796 142.109 141.638 141.634C141.15 140.991 140.492 140.497 139.738 140.208C133.084 137.832 131.024 147.179 124.845 146.229C121.835 145.753 120.092 141.951 118.666 139.729C116.512 136.606 114.806 133.197 113.6 129.6C112.649 126.59 112.491 122.788 114.709 120.57C119.145 116.133 125.482 121.837 130.235 122.946C133.744 123.822 137.433 123.657 140.85 122.471C142.543 121.837 144.067 120.821 145.304 119.502C146.54 118.183 147.456 116.597 147.979 114.866C148.346 113.758 148.45 112.58 148.285 111.425C148.119 110.27 147.688 109.169 147.025 108.209Z" fill="url(#paint21_linear_63_4478)"/>
<path d="M80.166 257.927L47.846 440.757H53.391L99.178 256.657L80.166 257.927Z" fill="url(#paint22_linear_63_4478)"/>
<path d="M420 257.927L452.32 440.757H446.62L400.833 256.657L420 257.927Z" fill="url(#paint23_linear_63_4478)"/>
<path d="M487.336 268.225H13.15V276.939H487.336V268.225Z" fill="url(#paint24_linear_63_4478)"/>
<path d="M13.15 268.225L48.639 249.372H500.169L487.5 268.225H13.15Z" fill="white"/>
<path d="M487.336 276.939L500.169 258.719V249.372L487.5 268.225L487.336 276.939Z" fill="url(#paint25_linear_63_4478)"/>
<path d="M182.989 198.357L193.6 211.19L241.129 240.816L255.546 243.51L264.419 249.688L244.456 250.164C244.012 250.161 243.572 250.252 243.165 250.43C242.758 250.608 242.393 250.87 242.094 251.199C241.795 251.528 241.569 251.916 241.43 252.338C241.291 252.76 241.243 253.207 241.288 253.649L241.446 255.392L242.714 255.867C243.707 256.243 244.56 256.917 245.155 257.796C245.751 258.675 246.06 259.717 246.041 260.779V262.521L239.541 259.828C238.825 259.53 238.183 259.078 237.663 258.502C237.142 257.927 236.756 257.243 236.531 256.501L234.154 247.787L182.981 229.409L173.475 220.22L182.989 198.357Z" fill="#FFCEBD"/>
<g opacity="0.4">
<path d="M236.539 253.174C236.191 251.83 236.084 250.436 236.222 249.055C236.227 247.678 235.901 246.319 235.271 245.094C234.162 243.194 231.471 241.767 229.726 240.658C227.204 239.068 224.555 237.69 221.805 236.539C215.305 234.162 208.972 230.518 202.159 229.092C200.099 228.617 198.198 228.3 196.139 227.825C194.396 227.35 192.495 226.716 190.752 226.241C189.177 225.784 187.681 225.089 186.316 224.181C182.516 221.488 181.563 216.101 178.869 212.14C178.537 211.546 178.109 211.011 177.602 210.556L173.324 220.22L182.83 229.409L234 247.787L236.376 256.501C236.601 257.243 236.988 257.927 237.508 258.502C238.028 259.077 238.67 259.53 239.386 259.828L245.886 262.522V259.987C244.302 259.194 242.559 258.561 240.975 257.769C238.949 256.881 237.355 255.23 236.539 253.174Z" fill="#A58877"/>
</g>
<g opacity="0.2">
<g opacity="0.4">
<path d="M156.531 207.07C155.121 208.46 154.275 210.323 154.154 212.299C154.017 214.233 154.287 216.175 154.946 217.999C154.946 218.158 155.105 218.316 155.105 218.474L158.432 209.285L173.483 220.059L177.76 210.394C176.891 209.366 175.937 208.412 174.909 207.543C173.62 206.248 172.047 205.271 170.314 204.691C167.625 203.898 164.765 203.898 162.076 204.691C160.053 204.991 158.143 205.811 156.531 207.07Z" fill="#6C98E3"/>
</g>
</g>
<path d="M131.657 265.056C128.171 265.056 127.857 263.63 130.865 262.046L149.243 252.382C153.023 250.605 157.113 249.582 161.284 249.372H209.284C212.77 249.372 213.084 250.639 210.077 252.382L191.54 262.205C187.76 263.981 183.67 265.004 179.499 265.215H131.657V265.056Z" fill="url(#paint26_linear_63_4478)"/>
<path d="M210.239 249.372C209.888 249.526 209.566 249.74 209.288 250.005L190.752 259.828C186.972 261.604 182.882 262.627 178.711 262.838H129.911C127.851 264.264 128.485 265.215 131.654 265.215H179.5C183.685 265.099 187.794 264.072 191.541 262.205L210.078 252.382C212.932 250.8 212.932 249.53 210.239 249.372Z" fill="#274187"/>
<path d="M143.064 257.61C142.905 257.61 142.747 257.61 142.747 257.452C142.716 257.413 142.695 257.367 142.687 257.318C142.678 257.269 142.682 257.219 142.698 257.171C142.713 257.124 142.74 257.082 142.777 257.047C142.813 257.013 142.857 256.989 142.905 256.976L147.658 254.441C147.742 254.399 147.839 254.392 147.929 254.422C148.018 254.451 148.091 254.515 148.134 254.599C148.176 254.684 148.182 254.781 148.153 254.87C148.123 254.959 148.059 255.033 147.975 255.075L143.222 257.61H143.064Z" fill="#3A3C4E"/>
<path d="M50.223 250.481H45.945C44.0688 250.459 42.2769 249.698 40.958 248.363C39.6391 247.029 38.8994 245.228 38.8994 243.352C38.8994 241.475 39.6391 239.674 40.958 238.34C42.2769 237.005 44.0688 236.244 45.945 236.222H48.8V239.232H45.945C44.8526 239.232 43.8049 239.666 43.0324 240.438C42.26 241.211 41.826 242.259 41.826 243.351C41.826 244.443 42.26 245.491 43.0324 246.264C43.8049 247.036 44.8526 247.47 45.945 247.47H50.223V250.481Z" fill="url(#paint27_linear_63_4478)"/>
<path d="M73.671 233.845H47.371V241.925C47.3902 247.619 49.5374 253.101 53.391 257.293V261.254H67.809V257.293C71.6626 253.101 73.8099 247.619 73.829 241.925V233.845H73.671Z" fill="url(#paint28_linear_63_4478)"/>
<g opacity="0.29">
<path d="M68.284 233.845V241.925C68.2648 247.619 66.1176 253.101 62.264 257.293V261.254H65.432V257.293C69.2863 253.101 71.434 247.619 71.453 241.925V233.845H68.284Z" fill="white"/>
</g>
<path d="M389.267 197.406H338.886V255.55H389.267V197.406Z" fill="#274187"/>
<path d="M380.4 197.406H337.143V258.561H380.4V197.406Z" fill="url(#paint29_linear_63_4478)"/>
<path d="M454.066 220.854H268.7C265.355 220.833 262.064 220 259.112 218.427C256.159 216.854 253.632 214.588 251.748 211.823L249.372 208.179L277.731 78.107C278.252 74.8587 279.906 71.8996 282.4 69.7538C284.894 67.608 288.066 66.4139 291.356 66.383L478.306 62.422L485.593 69.235C486.824 70.3577 487.748 71.7771 488.275 73.3578C488.802 74.9386 488.915 76.628 488.604 78.265L467.691 209.13C467.221 212.401 465.582 215.391 463.077 217.547C460.572 219.702 457.371 220.877 454.066 220.854Z" fill="#274187"/>
<path d="M445.827 213.566H258.085C256.696 213.569 255.324 213.271 254.061 212.692C252.799 212.114 251.678 211.268 250.774 210.214C249.87 209.159 249.206 207.922 248.827 206.586C248.448 205.25 248.363 203.848 248.579 202.476L269.651 70.819C270.173 67.5716 271.828 64.6137 274.321 62.4689C276.815 60.3241 279.987 59.1307 283.276 59.1H471.176C472.565 59.0968 473.937 59.3948 475.2 59.9736C476.462 60.5523 477.583 61.398 478.487 62.4523C479.391 63.5065 480.055 64.7443 480.434 66.0802C480.813 67.4161 480.898 68.8183 480.682 70.19L459.611 201.842C459.082 205.116 457.404 208.094 454.878 210.242C452.352 212.391 449.143 213.569 445.827 213.566Z" fill="url(#paint30_linear_63_4478)"/>
<path d="M248.579 202.476C248.363 203.848 248.448 205.25 248.827 206.586C249.206 207.922 249.87 209.159 250.774 210.214C251.678 211.268 252.799 212.114 254.061 212.692C255.324 213.271 256.696 213.569 258.085 213.566H445.985C449.29 213.589 452.491 212.414 454.996 210.259C457.501 208.103 459.141 205.113 459.611 201.842L462.938 181.088H251.907L248.579 202.476Z" fill="url(#paint31_linear_63_4478)"/>
<path d="M406.378 248.58H296.109V258.561H406.378V248.58Z" fill="url(#paint32_linear_63_4478)"/>
<path d="M406.447 258.516H419.914V248.535H406.447V258.516Z" fill="#274187"/>
<path d="M477.672 17.744C475.295 27.409 465.789 35.172 456.125 35.172C446.461 35.172 440.599 27.409 442.975 17.744C445.351 8.07902 454.858 0.317017 464.522 0.317017C474.186 0.317017 479.89 8.23802 477.672 17.744Z" fill="#F5554F"/>
<path d="M471.176 2.06006C474.82 5.22806 476.563 10.4601 475.137 16.3191C472.76 25.9831 463.255 33.7461 453.59 33.7461C451.228 33.7465 448.897 33.2046 446.778 32.1621C449.354 34.3002 452.621 35.4265 455.967 35.3301C465.631 35.3301 475.295 27.5671 477.513 17.9031C479.256 10.7731 476.563 4.75306 471.176 2.06006Z" fill="#DB3029"/>
<path d="M456.284 24.874L451.689 18.8539L455.967 15.3679L457.867 17.9029L466.739 10.7729L469.432 14.2589L456.284 24.874Z" fill="white"/>
<path d="M290.089 81.909H283.276L283.91 77.79H290.722L290.089 81.909Z" fill="#274187"/>
<path d="M288.346 92.683H281.533L282.325 88.563H288.98L288.346 92.683Z" fill="#274187"/>
<path d="M286.6 103.3H279.946L280.58 99.1801H287.234L286.6 103.3Z" fill="#274187"/>
<path d="M284.86 114.071H278.206L278.84 109.952H285.494L284.86 114.071Z" fill="#274187"/>
<path d="M283.118 124.686H276.463L277.097 120.567H283.91L283.118 124.686Z" fill="#274187"/>
<path d="M281.533 135.459H274.721L275.354 131.34H282.167L281.533 135.459Z" fill="#274187"/>
<path d="M279.791 146.074H272.978L273.77 141.955H280.424L279.791 146.074Z" fill="#274187"/>
<path d="M278.048 156.847H271.394L272.027 152.728H278.682L278.048 156.847Z" fill="#274187"/>
<path d="M276.305 167.462H269.651L270.285 163.343H276.939L276.305 167.462Z" fill="#274187"/>
<path d="M463.1 81.909H456.446L457.08 77.79H463.734L463.1 81.909Z" fill="#274187"/>
<path d="M461.353 92.683H454.7L455.334 88.563H462.147L461.353 92.683Z" fill="#274187"/>
<path d="M459.769 103.3H452.956L453.59 99.1801H460.4L459.769 103.3Z" fill="#274187"/>
<path d="M458.026 114.071H451.372L452.006 109.952H458.66L458.026 114.071Z" fill="#274187"/>
<path d="M456.284 124.686H449.629L450.263 120.567H456.917L456.284 124.686Z" fill="#274187"/>
<path d="M454.541 135.459H447.887L448.52 131.34H455.175L454.541 135.459Z" fill="#274187"/>
<path d="M452.956 146.074H446.144L446.778 141.955H453.59L452.956 146.074Z" fill="#274187"/>
<path d="M451.214 156.847H444.4L445.192 152.728H451.846L451.214 156.847Z" fill="#274187"/>
<path d="M449.471 167.462H442.817L443.451 163.343H450.105L449.471 167.462Z" fill="#274187"/>
<path d="M454.066 81.909H434.9L435.534 77.79H454.7L454.066 81.909Z" fill="#274187"/>
<path d="M452.323 92.683H433.153L433.786 88.563H452.957L452.323 92.683Z" fill="#274187"/>
<path d="M450.58 103.3H431.41L432.044 99.1801H451.372L450.58 103.3Z" fill="#274187"/>
<path d="M449 114.071H429.825L430.459 109.952H449.629L449 114.071Z" fill="#274187"/>
<path d="M447.253 124.686H428.083L428.716 120.567H447.887L447.253 124.686Z" fill="#274187"/>
<path d="M445.51 135.459H426.34L426.974 131.34H446.144L445.51 135.459Z" fill="#274187"/>
<path d="M443.767 146.074H424.6L425.234 141.955H444.4L443.767 146.074Z" fill="#274187"/>
<path d="M442.025 156.847H422.854L423.647 152.728H442.817L442.025 156.847Z" fill="#274187"/>
<path d="M440.44 167.462H421.27L421.904 163.343H441.074L440.44 167.462Z" fill="#274187"/>
<path d="M419.844 81.909H347.758L348.391 77.79H420.478L419.844 81.909Z" fill="#274187"/>
<path d="M413.982 92.683H325.894L326.528 88.563H414.616L413.982 92.683Z" fill="#274187"/>
<path d="M412.556 103.3H331.439L332.073 99.1801H413.349L412.556 103.3Z" fill="#274187"/>
<path d="M402.575 114.071H310.051L310.685 109.952H403.209L402.575 114.071Z" fill="#274187"/>
<path d="M411.764 124.686H334.133L334.766 120.567H412.4L411.764 124.686Z" fill="url(#paint33_linear_63_4478)"/>
<path d="M397.822 135.459H316.071L316.864 131.34H398.456L397.822 135.459Z" fill="#274187"/>
<path d="M390.376 146.074H302.763L303.397 141.955H391.01L390.376 146.074Z" fill="#274187"/>
<path d="M407.8 156.847H329.7L330.333 152.728H408.44L407.8 156.847Z" fill="#274187"/>
<path d="M403.684 167.462H310.368L311.002 163.343H404.318L403.684 167.462Z" fill="#274187"/>
<path d="M345.7 81.909H295.634L296.267 77.79H346.332L345.7 81.909Z" fill="#274187"/>
<path d="M323.835 92.683H294.049L294.683 88.563H324.468L323.835 92.683Z" fill="url(#paint34_linear_63_4478)"/>
<path d="M329.063 103.3H292.307L292.94 99.1801H329.7L329.063 103.3Z" fill="#274187"/>
<path d="M307.516 114.071H290.564L291.198 109.952H308.308L307.516 114.071Z" fill="url(#paint35_linear_63_4478)"/>
<path d="M331.6 124.686H288.821L289.455 120.567H332.39L331.6 124.686Z" fill="#274187"/>
<path d="M314.012 135.459H287.078L287.871 131.34H314.8L314.012 135.459Z" fill="#274187"/>
<path d="M300.387 146.074H285.494L286.128 141.955H301.02L300.387 146.074Z" fill="#274187"/>
<path d="M327.637 156.847H283.751L284.385 152.728H328.271L327.637 156.847Z" fill="url(#paint36_linear_63_4478)"/>
<path d="M307.833 167.462H282.009L282.642 163.343H308.625L307.833 167.462Z" fill="#274187"/>
<path opacity="0.756" d="M478.147 63.214C477.329 62.303 476.326 61.5773 475.205 61.0855C474.084 60.5936 472.871 60.3469 471.647 60.362H425.072C424.879 61.1938 424.773 62.0433 424.756 62.897L418.735 102.664C418.771 105.278 419.6 107.819 421.112 109.952C421.429 110.269 421.745 110.744 422.062 111.061L423.013 112.011C423.768 112.593 424.561 113.123 425.389 113.596H425.548C425.865 113.754 426.34 113.912 426.657 114.071C426.815 114.071 426.815 114.229 426.974 114.229C427.291 114.388 427.607 114.388 427.924 114.546C428.01 114.535 428.098 114.544 428.18 114.572C428.262 114.599 428.338 114.645 428.4 114.705C428.716 114.705 429.033 114.863 429.35 114.863H429.825C430.301 114.863 430.776 115.022 431.251 115.022H481.316L487.336 77.156C487.551 75.6924 487.419 74.1987 486.952 72.7953C486.484 71.3918 485.693 70.1179 484.643 69.076L478.147 63.214Z" fill="#6680C6"/>
<path opacity="0.78" d="M478.306 63.2139C477.488 62.3033 476.485 61.5779 475.364 61.086C474.243 60.5942 473.03 60.3473 471.806 60.3619H425.389C425.196 61.1937 425.09 62.0433 425.072 62.8969L419.052 102.505C419.088 105.119 419.916 107.661 421.429 109.793C421.745 110.11 422.062 110.585 422.379 110.902L423.33 111.853C424.084 112.435 424.878 112.965 425.706 113.437H425.865C426.182 113.596 426.657 113.754 426.974 113.913C427.132 113.913 427.132 114.071 427.291 114.071C427.607 114.229 427.924 114.229 428.241 114.388C428.327 114.377 428.414 114.386 428.496 114.413C428.579 114.44 428.654 114.486 428.716 114.546C429.033 114.546 429.35 114.705 429.667 114.705H430.142C430.618 114.705 431.093 114.863 431.568 114.863H481.316L487.336 77.3149C487.589 75.8505 487.476 74.3461 487.006 72.9362C486.536 71.5263 485.724 70.2547 484.643 69.2349L478.306 63.2139Z" fill="#617CC4"/>
<path opacity="0.805" d="M478.306 63.2141C477.51 62.3194 476.534 61.6028 475.441 61.1114C474.349 60.6199 473.166 60.3646 471.968 60.3621H425.868C425.685 61.1421 425.578 61.9382 425.551 62.7391L419.53 102.189C419.566 104.803 420.395 107.344 421.907 109.476C422.224 109.793 422.541 110.269 422.857 110.585L423.808 111.536C424.563 112.119 425.357 112.648 426.185 113.12H426.343C426.66 113.279 427.135 113.437 427.452 113.596C427.61 113.596 427.61 113.754 427.769 113.754C428.086 113.913 428.403 113.913 428.719 114.071C428.805 114.06 428.892 114.069 428.975 114.096C429.057 114.124 429.132 114.169 429.195 114.229C429.512 114.229 429.828 114.388 430.145 114.388H430.621C431.096 114.388 431.571 114.546 432.047 114.546H481.636L487.656 77.1561C487.909 75.7158 487.794 74.2352 487.323 72.8508C486.853 71.4665 486.041 70.2229 484.963 69.2351L478.306 63.2141Z" fill="#5C78C3"/>
<path opacity="0.829" d="M478.306 63.2141C477.51 62.3194 476.534 61.6028 475.441 61.1114C474.349 60.6199 473.166 60.3646 471.968 60.3621H426.023C425.84 61.1422 425.734 61.9383 425.706 62.7391L419.844 102.03C419.855 104.6 420.688 107.098 422.221 109.16C422.538 109.476 422.854 109.952 423.171 110.269L424.122 111.219C424.851 111.836 425.649 112.366 426.5 112.8H426.659C426.976 112.959 427.451 113.117 427.768 113.276C427.926 113.276 427.926 113.434 428.085 113.434C428.402 113.593 428.718 113.593 429.035 113.751C429.121 113.74 429.208 113.749 429.291 113.776C429.373 113.804 429.448 113.849 429.511 113.909C429.827 113.909 430.144 114.068 430.461 114.068H430.936C431.412 114.068 431.887 114.226 432.362 114.226H481.635L487.653 77.0001C487.893 75.5599 487.772 74.0828 487.302 72.7005C486.832 71.3182 486.028 70.0738 484.96 69.0781L478.306 63.2141Z" fill="#5774C1"/>
<path opacity="0.854" d="M478.306 63.2141C477.51 62.3194 476.534 61.6028 475.441 61.1114C474.349 60.6199 473.166 60.3646 471.968 60.3621H426.34C426.157 61.1422 426.051 61.9383 426.023 62.7391L420.161 101.713C420.197 104.278 421.028 106.769 422.538 108.843C422.854 109.16 423.171 109.635 423.488 109.952L424.439 110.902C425.168 111.52 425.965 112.052 426.815 112.487H426.974C427.291 112.645 427.766 112.803 428.083 112.962C428.241 112.962 428.241 113.12 428.4 113.12C428.716 113.279 429.033 113.279 429.35 113.437C429.436 113.426 429.523 113.435 429.606 113.463C429.688 113.49 429.763 113.536 429.825 113.596C430.142 113.596 430.459 113.754 430.776 113.754H431.251C431.727 113.754 432.202 113.913 432.677 113.913H481.633L487.5 76.8401C487.74 75.3998 487.619 73.9227 487.149 72.5404C486.679 71.1582 485.874 69.9137 484.806 68.9181L478.306 63.2141Z" fill="#5270BF"/>
<path opacity="0.878" d="M478.306 63.2141C477.51 62.3194 476.534 61.6028 475.441 61.1114C474.349 60.6199 473.166 60.3646 471.968 60.3621H426.5C426.317 61.1422 426.212 61.9383 426.184 62.7391L420.322 101.555C420.358 104.12 421.188 106.611 422.698 108.684C423.015 109.001 423.332 109.476 423.649 109.793L424.599 110.744C425.301 111.397 426.103 111.932 426.976 112.328H427.134C427.451 112.487 427.926 112.645 428.243 112.803C428.402 112.803 428.402 112.962 428.56 112.962C428.877 113.12 429.194 113.12 429.511 113.279C429.597 113.268 429.684 113.277 429.766 113.304C429.848 113.332 429.924 113.377 429.986 113.437C430.303 113.437 430.62 113.596 430.936 113.596H431.412C431.887 113.596 432.362 113.754 432.838 113.754H481.638L487.5 77.0001C487.74 75.5598 487.619 74.0827 487.149 72.7004C486.679 71.3182 485.874 70.0737 484.806 69.0781L478.306 63.2141Z" fill="#4D6BBD"/>
<path opacity="0.902" d="M478.306 63.373C477.51 62.4779 476.534 61.7611 475.442 61.2696C474.35 60.7781 473.166 60.523 471.968 60.521H426.815C426.632 61.3018 426.527 62.0986 426.5 62.9L420.638 101.4C420.674 103.965 421.505 106.456 423.015 108.53C423.33 108.86 423.597 109.234 423.807 109.639L424.758 110.589C425.459 111.242 426.262 111.777 427.134 112.174H427.293C427.609 112.332 428.085 112.491 428.402 112.649C428.56 112.649 428.56 112.807 428.718 112.807C429.035 112.966 429.352 112.966 429.669 113.124C429.755 113.113 429.842 113.122 429.925 113.15C430.007 113.177 430.082 113.223 430.144 113.283C430.461 113.283 430.778 113.441 431.095 113.441H431.57C432.045 113.441 432.521 113.6 432.996 113.6H481.476L487.336 77C487.588 75.5837 487.473 74.1265 487.002 72.7674C486.53 71.4083 485.718 70.1928 484.643 69.237L478.306 63.373Z" fill="#4867BB"/>
<path opacity="0.927" d="M478.306 63.373C477.531 62.494 476.581 61.7863 475.517 61.2953C474.453 60.8042 473.299 60.5405 472.127 60.521H427.132C426.949 61.3007 426.843 62.0965 426.815 62.897L421.115 101.397C421.125 103.918 421.96 106.366 423.491 108.368C423.806 108.698 424.073 109.072 424.283 109.477L425.234 110.428C425.935 111.081 426.738 111.616 427.61 112.012H427.769C428.086 112.171 428.561 112.329 428.878 112.488C429.036 112.488 429.036 112.646 429.195 112.646C429.512 112.804 429.828 112.804 430.145 112.963C430.231 112.952 430.318 112.961 430.401 112.988C430.483 113.016 430.558 113.061 430.621 113.121C430.937 113.121 431.254 113.28 431.571 113.28H432.047C432.522 113.28 432.997 113.438 433.472 113.438H481.636L487.5 77C487.739 75.5839 487.617 74.1304 487.147 72.7737C486.676 71.4169 485.871 70.2006 484.806 69.237L478.306 63.373Z" fill="#4363B9"/>
<path opacity="0.951" d="M478.306 63.373C477.542 62.4811 476.594 61.7647 475.528 61.2725C474.461 60.7803 473.301 60.5239 472.127 60.521H427.449C427.318 61.3058 427.265 62.1017 427.291 62.897L421.429 101.08C421.44 103.601 422.274 106.049 423.805 108.051C424.122 108.367 424.28 108.843 424.597 109.16L425.548 110.11C426.22 110.726 426.965 111.258 427.766 111.694H427.924C428.241 111.853 428.716 112.011 429.033 112.17C429.192 112.17 429.192 112.328 429.35 112.328C429.667 112.487 429.984 112.487 430.301 112.645C430.387 112.634 430.474 112.643 430.556 112.67C430.639 112.698 430.714 112.743 430.776 112.803C431.093 112.803 431.41 112.962 431.727 112.962H432.202C432.677 112.962 433.153 113.12 433.628 113.12H481.633L487.5 76.84C487.739 75.4237 487.617 73.9702 487.146 72.6133C486.676 71.2564 485.871 70.0399 484.806 69.076L478.306 63.373Z" fill="#3E5FB8"/>
<path opacity="0.976" d="M478.306 63.3731C477.553 62.4682 476.607 61.7427 475.539 61.2494C474.47 60.756 473.304 60.5072 472.127 60.5211H427.766C427.634 61.3058 427.581 62.1017 427.607 62.8971L421.907 100.921C421.888 103.421 422.665 105.862 424.125 107.892C424.442 108.209 424.6 108.684 424.917 109.001L425.868 109.952C426.54 110.568 427.285 111.1 428.086 111.536H428.244C428.561 111.694 429.036 111.853 429.353 112.011C429.512 112.011 429.512 112.17 429.67 112.17C429.987 112.328 430.304 112.328 430.621 112.487C430.707 112.476 430.794 112.485 430.876 112.512C430.958 112.54 431.034 112.585 431.096 112.645C431.413 112.645 431.73 112.803 432.047 112.803H432.522C432.997 112.803 433.472 112.962 433.948 112.962H481.636L487.336 77.0001C487.588 75.6077 487.471 74.1738 486.999 72.8401C486.527 71.5063 485.715 70.3189 484.643 69.3951L478.306 63.3731Z" fill="#395BB6"/>
<path d="M478.306 63.373C477.543 62.4905 476.592 61.7903 475.523 61.3241C474.453 60.8579 473.293 60.6374 472.127 60.679H427.927C427.796 61.4642 427.743 62.2604 427.769 63.056L422.069 100.763C422.075 103.259 422.849 105.693 424.287 107.734C424.588 108.075 424.854 108.447 425.079 108.843L426.03 109.793C426.703 110.409 427.447 110.941 428.248 111.378H428.407C428.764 111.565 429.135 111.724 429.516 111.853C429.674 111.853 429.674 112.011 429.832 112.011C430.149 112.17 430.466 112.17 430.783 112.328C430.869 112.317 430.956 112.326 431.039 112.354C431.121 112.381 431.196 112.427 431.258 112.487C431.575 112.487 431.892 112.645 432.209 112.645H432.684C433.16 112.645 433.635 112.804 434.11 112.804H481.481L487.178 77C487.42 75.6216 487.315 74.2045 486.873 72.8768C486.43 71.549 485.664 70.3524 484.643 69.395L478.306 63.373Z" fill="#3457B4"/>
<path d="M433.152 114.229C429.415 114.221 425.833 112.733 423.191 110.09C420.548 107.448 419.06 103.866 419.052 100.129L425.865 55.61C425.873 51.873 427.361 48.2913 430.004 45.6489C432.646 43.0064 436.228 41.5182 439.965 41.51H575.9C579.637 41.5182 583.219 43.0064 585.861 45.6489C588.504 48.2913 589.992 51.873 590 55.61L583.187 100.129C581.762 106.941 577.325 114.388 569.087 114.388H433.152V114.229Z" fill="url(#paint37_linear_63_4478)"/>
<path d="M584.138 44.2C585.916 46.5761 586.862 49.4714 586.831 52.4389L580.019 96.9599C578.593 103.773 574.157 111.219 565.919 111.219H429.984C427.02 111.225 424.133 110.281 421.745 108.526C423.048 110.335 424.761 111.81 426.743 112.829C428.726 113.848 430.923 114.382 433.152 114.388H569.087C577.325 114.388 581.762 106.942 583.187 100.129L590 55.61C589.995 53.3799 589.462 51.1829 588.442 49.1993C587.423 47.2158 585.948 45.5024 584.138 44.2Z" fill="#274187"/>
<path d="M480.524 70.9781C480.277 70.9612 480.045 70.8556 479.87 70.6808C479.695 70.506 479.59 70.2737 479.573 70.0271L480.207 65.4321C480.224 65.1856 480.329 64.9537 480.504 64.779C480.679 64.6044 480.911 64.4989 481.157 64.4821H576.216C576.463 64.4987 576.695 64.604 576.87 64.7787C577.045 64.9534 577.15 65.1855 577.167 65.4321L576.533 70.0271C576.375 70.5021 576.058 70.9781 575.583 70.9781H480.524Z" fill="#B3CDFA"/>
<path d="M478.939 83.335C478.693 83.3181 478.461 83.2127 478.286 83.038C478.111 82.8634 478.006 82.6314 477.989 82.385L478.622 77.79C478.639 77.5435 478.745 77.3115 478.92 77.1368C479.094 76.9622 479.326 76.8568 479.573 76.84H574.632C574.879 76.8568 575.111 76.9622 575.285 77.1368C575.46 77.3115 575.566 77.5435 575.583 77.79L574.949 82.385C574.791 82.86 574.474 83.335 573.998 83.335H478.939Z" fill="#B3CDFA"/>
<path d="M477.355 95.851C477.108 95.8342 476.876 95.7287 476.702 95.5541C476.527 95.3794 476.421 95.1475 476.404 94.901L477.038 90.306C477.055 90.0594 477.16 89.8273 477.335 89.6526C477.51 89.4779 477.742 89.3726 477.989 89.356H536.609C536.855 89.3728 537.087 89.4783 537.262 89.6529C537.437 89.8276 537.542 90.0595 537.559 90.306L536.925 94.901C536.767 95.376 536.45 95.851 535.975 95.851H477.355Z" fill="#B3CDFA"/>
<path d="M460.72 80.325H464.205C464.562 80.2872 464.902 80.1478 465.182 79.9233C465.463 79.6987 465.674 79.3985 465.789 79.058L466.582 74.621C466.617 74.461 466.615 74.2948 466.574 74.1361C466.533 73.9773 466.456 73.8303 466.348 73.7069C466.24 73.5836 466.105 73.4874 465.953 73.4261C465.801 73.3648 465.636 73.3401 465.473 73.354H462.779C462.555 73.3476 462.339 73.2661 462.167 73.1225C461.995 72.9788 461.876 72.7814 461.829 72.562C461.829 72.245 461.67 72.087 461.67 71.77C461.589 71.5363 461.593 71.2817 461.68 71.0503C461.767 70.8188 461.931 70.6249 462.146 70.502L464.364 68.602C464.51 68.5179 464.636 68.403 464.734 68.2651C464.831 68.1273 464.897 67.9699 464.927 67.8039C464.957 67.6379 464.95 67.4674 464.908 67.3042C464.865 67.141 464.787 66.989 464.68 66.859L462.146 63.691C461.914 63.4622 461.601 63.3339 461.275 63.3339C460.948 63.3339 460.635 63.4622 460.403 63.691L458.026 65.591C457.851 65.7345 457.64 65.8256 457.415 65.8536C457.191 65.8815 456.964 65.8453 456.759 65.749C456.442 65.591 456.284 65.432 455.967 65.432C455.781 65.3653 455.627 65.2294 455.539 65.0524C455.45 64.8755 455.433 64.6712 455.491 64.482L455.967 61.788C456.002 61.6279 456 61.4618 455.959 61.3031C455.918 61.1443 455.841 60.9973 455.733 60.8739C455.625 60.7506 455.49 60.6544 455.338 60.5931C455.186 60.5318 455.021 60.5071 454.858 60.521H450.422C450.064 60.5588 449.725 60.6982 449.444 60.9227C449.163 61.1472 448.953 61.4475 448.837 61.788L448.362 64.482C448.294 64.7063 448.171 64.9104 448.005 65.0761C447.84 65.2418 447.635 65.364 447.411 65.432C447.094 65.591 446.778 65.591 446.619 65.749C446.144 65.908 445.669 65.908 445.51 65.591L443.926 63.691C443.694 63.4622 443.381 63.3339 443.055 63.3339C442.728 63.3339 442.415 63.4622 442.183 63.691L438.539 66.859C438.393 66.943 438.266 67.0579 438.169 67.1957C438.072 67.3335 438.006 67.4909 437.976 67.6568C437.945 67.8228 437.952 67.9934 437.994 68.1566C438.037 68.3199 438.115 68.4719 438.222 68.602L439.807 70.502C439.882 70.5735 439.942 70.6596 439.983 70.7549C440.023 70.8502 440.045 70.9528 440.045 71.0565C440.045 71.1602 440.023 71.2628 439.983 71.3581C439.942 71.4534 439.882 71.5394 439.807 71.611C439.685 71.8951 439.524 72.1615 439.331 72.403C439.24 72.615 439.083 72.7916 438.883 72.906C438.683 73.0205 438.451 73.0664 438.222 73.037H435.529C435.171 73.0747 434.832 73.2142 434.551 73.4389C434.27 73.6637 434.06 73.9643 433.945 74.305L433.152 78.741C433.117 78.9011 433.119 79.0673 433.16 79.2262C433.201 79.385 433.278 79.5321 433.386 79.6555C433.494 79.7788 433.63 79.875 433.782 79.9362C433.934 79.9975 434.099 80.0221 434.262 80.008H436.955C437.179 80.0143 437.395 80.0958 437.567 80.2395C437.739 80.3831 437.858 80.5805 437.905 80.8C437.905 81.117 438.064 81.276 438.064 81.592C438.145 81.8256 438.141 82.08 438.055 82.3114C437.968 82.5428 437.803 82.7368 437.589 82.86L435.371 84.76C435.225 84.8438 435.098 84.9587 435.001 85.0965C434.903 85.2343 434.837 85.3917 434.807 85.5577C434.777 85.7238 434.783 85.8944 434.826 86.0577C434.869 86.221 434.946 86.3729 435.054 86.503L437.589 89.671C437.821 89.8997 438.134 90.028 438.46 90.028C438.786 90.028 439.099 89.8997 439.331 89.671L441.708 87.771C441.883 87.6274 442.094 87.5364 442.319 87.5084C442.543 87.4804 442.771 87.5167 442.975 87.613C443.292 87.771 443.451 87.93 443.767 87.93C443.953 87.9967 444.107 88.1326 444.195 88.3095C444.284 88.4865 444.301 88.6908 444.243 88.88L443.609 91.891C443.574 92.051 443.576 92.2171 443.617 92.3759C443.658 92.5347 443.735 92.6817 443.843 92.805C443.951 92.9284 444.086 93.0246 444.238 93.0859C444.39 93.1472 444.555 93.1719 444.718 93.158H449.154C449.511 93.1202 449.851 92.9808 450.131 92.7563C450.412 92.5317 450.623 92.2315 450.738 91.891L451.214 89.197C451.282 88.9728 451.404 88.7688 451.57 88.6031C451.736 88.4374 451.94 88.3151 452.164 88.247C452.481 88.088 452.64 88.088 452.956 87.93C453.432 87.771 453.907 87.771 454.066 88.088L455.65 89.988C455.882 90.2168 456.195 90.3451 456.522 90.3451C456.848 90.3451 457.161 90.2168 457.393 89.988L461.036 86.82C461.182 86.7361 461.309 86.6213 461.406 86.4835C461.504 86.3457 461.57 86.1883 461.6 86.0222C461.63 85.8562 461.624 85.6856 461.581 85.5223C461.538 85.359 461.461 85.207 461.353 85.077L459.769 83.177C459.694 83.1054 459.634 83.0194 459.593 82.9241C459.553 82.8288 459.531 82.7262 459.531 82.6225C459.531 82.5188 459.553 82.4162 459.593 82.3209C459.634 82.2256 459.694 82.1395 459.769 82.068C460.14 81.5179 460.458 80.9344 460.72 80.325ZM443.926 75.73C445.352 71.77 449.946 69.552 453.273 70.978C454.539 71.5635 455.527 72.6179 456.03 73.9187C456.532 75.2194 456.51 76.6645 455.967 77.949C454.541 81.909 449.946 84.127 446.619 82.701C445.981 82.4248 445.403 82.0243 444.921 81.5228C444.439 81.0213 444.062 80.4288 443.811 79.7799C443.561 79.1311 443.442 78.4388 443.461 77.7434C443.481 77.0481 443.639 76.3636 443.926 75.73Z" fill="white"/>
<path d="M419.211 48.005H308.942C308.257 48.0243 307.576 47.8927 306.947 47.6196C306.318 47.3464 305.758 46.9384 305.304 46.4245C304.851 45.9105 304.516 45.3031 304.323 44.6453C304.13 43.9875 304.084 43.2954 304.189 42.618L307.516 13.784C307.688 12.3341 308.375 10.9939 309.45 10.0063C310.525 9.01862 311.919 8.44877 313.378 8.39996H423.805C424.49 8.38048 425.171 8.51193 425.8 8.785C426.429 9.05806 426.99 9.46606 427.443 9.98008C427.897 10.4941 428.232 11.1016 428.424 11.7594C428.617 12.4173 428.663 13.1095 428.558 13.787L425.231 42.621C425.048 44.0944 424.337 45.4515 423.23 46.4413C422.123 47.4311 420.696 47.9866 419.211 48.005Z" fill="url(#paint38_linear_63_4478)"/>
<path d="M426.182 9.03101C426.67 9.89615 426.838 10.9054 426.657 11.882L423.33 40.717C423.158 42.1673 422.472 43.5081 421.397 44.4963C420.321 45.4845 418.928 46.0549 417.468 46.104H307.041C306.275 46.1154 305.517 45.9526 304.823 45.628C305.247 46.3917 305.867 47.0288 306.618 47.4743C307.37 47.9197 308.226 48.1574 309.1 48.163H419.527C420.994 48.14 422.402 47.5786 423.483 46.5857C424.564 45.5927 425.242 44.2373 425.389 42.777L428.716 13.942C428.821 12.9653 428.636 11.9793 428.186 11.1063C427.735 10.2334 427.039 9.51179 426.182 9.03101Z" fill="#B3CDFA"/>
<path d="M423.488 8.55502H313.853C312.286 8.57907 310.781 9.16963 309.616 10.2175C308.451 11.2653 307.705 12.6996 307.516 14.255L307.041 17.899H428.083L428.558 14.255C428.66 13.5362 428.604 12.8039 428.394 12.1089C428.184 11.4139 427.826 10.773 427.343 10.2305C426.861 9.68813 426.266 9.25727 425.6 8.96792C424.935 8.67857 424.214 8.53767 423.488 8.55502Z" fill="url(#paint39_linear_63_4478)"/>
<path d="M426.182 9.18896C426.506 9.99437 426.667 10.8559 426.657 11.724L426.023 17.744L428.083 18.537L428.241 16.794L428.558 14.101C428.689 13.1393 428.534 12.1602 428.111 11.2865C427.688 10.4127 427.017 9.68307 426.182 9.18896Z" fill="#3457B4"/>
<path d="M332.39 33.429C332.036 35.931 330.808 38.2268 328.922 39.9089C327.037 41.5911 324.616 42.5509 322.09 42.618C320.92 42.6375 319.759 42.4053 318.686 41.9371C317.614 41.4689 316.654 40.7756 315.873 39.9042C315.092 39.0328 314.507 38.0036 314.158 36.8864C313.809 35.7693 313.704 34.5902 313.851 33.429C314.205 30.9271 315.434 28.6314 317.319 26.9493C319.205 25.2671 321.625 24.3073 324.151 24.24C329.38 24.082 333.024 28.2 332.39 33.429Z" fill="#89ADE9"/>
<path d="M416.834 27.409H338.093L338.41 24.874H417.151L416.834 27.409Z" fill="#C2D7FB"/>
<path d="M416.042 34.7H337.3L337.617 32.165H416.2L416.042 34.7Z" fill="#C2D7FB"/>
<path d="M365.977 41.826H336.351L336.668 39.45H366.294L365.977 41.826Z" fill="#C2D7FB"/>
<path d="M318.606 13.15C318.577 13.4619 318.429 13.7507 318.193 13.957C317.958 14.1633 317.652 14.2714 317.339 14.259C317.192 14.2626 317.047 14.2363 316.91 14.1818C316.774 14.1274 316.651 14.0458 316.547 13.9421C316.443 13.8384 316.362 13.7147 316.307 13.5786C316.253 13.4424 316.226 13.2966 316.23 13.15C316.259 12.8381 316.407 12.5493 316.643 12.343C316.878 12.1367 317.184 12.0286 317.497 12.041C318.289 12.041 318.765 12.516 318.606 13.15Z" fill="#E3EDFE"/>
<path d="M323.835 13.15C323.806 13.4619 323.658 13.7508 323.422 13.957C323.186 14.1633 322.88 14.2714 322.567 14.259C322.42 14.2626 322.275 14.2363 322.138 14.1818C322.002 14.1274 321.879 14.0458 321.775 13.9421C321.671 13.8384 321.59 13.7147 321.535 13.5786C321.481 13.4424 321.454 13.2966 321.458 13.15C321.487 12.838 321.635 12.5492 321.871 12.343C322.107 12.1367 322.413 12.0286 322.726 12.041C322.873 12.0374 323.018 12.0637 323.155 12.1182C323.291 12.1726 323.414 12.2542 323.518 12.3579C323.622 12.4616 323.703 12.5853 323.758 12.7214C323.812 12.8576 323.839 13.0034 323.835 13.15Z" fill="#E3EDFE"/>
<path d="M328.9 13.15C328.871 13.4619 328.723 13.7507 328.488 13.957C328.252 14.1633 327.946 14.2714 327.633 14.259C327.486 14.2626 327.341 14.2363 327.204 14.1818C327.068 14.1274 326.945 14.0458 326.841 13.9421C326.737 13.8384 326.656 13.7147 326.601 13.5786C326.547 13.4424 326.52 13.2966 326.524 13.15C326.553 12.8381 326.701 12.5493 326.937 12.343C327.172 12.1367 327.478 12.0286 327.791 12.041C328.588 12.041 329.063 12.516 328.9 13.15Z" fill="#E3EDFE"/>
<path opacity="0.976" d="M404.476 90.148V89.356C404.476 89.197 404.476 89.197 404.318 89.039V88.88C404.318 88.722 404.318 88.722 404.16 88.563C404.16 88.405 404.001 88.247 404.001 88.088L403.843 87.93C403.458 87.367 402.936 86.9114 402.326 86.6065C401.716 86.3015 401.038 86.1571 400.357 86.187H323.2C321.877 86.2434 320.611 86.7425 319.605 87.6044C318.6 88.4663 317.913 89.641 317.655 90.94L307.355 157.006C307.243 157.748 307.297 158.505 307.513 159.224C307.513 159.383 307.672 159.541 307.672 159.699C307.672 159.857 307.83 159.858 307.83 160.016C307.83 160.174 307.988 160.175 307.988 160.333C307.988 160.491 308.147 160.492 308.305 160.65C308.463 160.808 308.464 160.808 308.622 160.967L308.781 161.125C308.955 161.292 309.176 161.402 309.414 161.442C309.435 161.442 309.456 161.445 309.475 161.453C309.495 161.461 309.512 161.473 309.527 161.488C309.542 161.502 309.554 161.52 309.562 161.54C309.57 161.559 309.573 161.58 309.573 161.601C309.731 161.601 309.89 161.759 310.048 161.759H310.365C310.682 161.759 310.84 161.917 311.157 161.917H388.313C388.957 161.889 389.595 161.783 390.213 161.601C390.846 161.284 391.322 160.967 391.955 160.65C392.969 159.806 393.644 158.625 393.855 157.323L402.255 103.298L404.155 91.098C404.276 90.9735 404.367 90.8237 404.423 90.6593C404.479 90.4949 404.497 90.3202 404.476 90.148Z" fill="#395BB6"/>
<path d="M404.16 90.465V89.672C404.16 89.514 404.16 89.514 404.001 89.356V89.2C404.001 89.042 404.001 89.042 403.843 88.883C403.826 88.7628 403.77 88.6514 403.684 88.566L403.526 88.408C403.175 87.8493 402.682 87.3936 402.098 87.0874C401.513 86.7813 400.858 86.6355 400.199 86.665H323.518C322.186 86.6923 320.905 87.1812 319.894 88.0481C318.883 88.915 318.204 90.1061 317.973 91.418L307.673 156.851C307.567 157.593 307.621 158.349 307.831 159.069C307.831 159.227 307.989 159.385 307.989 159.544C307.989 159.703 308.148 159.702 308.148 159.861C308.148 160.02 308.306 160.019 308.306 160.178C308.306 160.337 308.465 160.336 308.623 160.494L308.94 160.811L309.098 160.97C309.273 161.137 309.494 161.247 309.732 161.287C309.753 161.286 309.774 161.29 309.793 161.298C309.813 161.306 309.83 161.317 309.845 161.332C309.86 161.347 309.872 161.364 309.88 161.384C309.888 161.403 309.891 161.424 309.891 161.445C310.049 161.445 310.207 161.603 310.366 161.603H310.683C311 161.603 311.158 161.762 311.475 161.762H388.156C388.8 161.733 389.438 161.627 390.056 161.445C390.69 161.128 391.165 160.811 391.799 160.494C392.813 159.65 393.487 158.469 393.699 157.167L402.099 103.459L404 91.415C404.108 91.1099 404.162 90.7885 404.16 90.465Z" fill="#3457B4"/>
<path d="M387.841 161.442H299.119C298.428 161.453 297.743 161.308 297.116 161.019C296.488 160.73 295.933 160.303 295.492 159.771C295.051 159.239 294.736 158.615 294.568 157.944C294.401 157.274 294.386 156.574 294.525 155.897L306.407 79.85C306.678 78.344 307.452 76.9748 308.604 75.9672C309.755 74.9595 311.215 74.3734 312.744 74.305H401.466C402.157 74.2943 402.842 74.4389 403.469 74.7281C404.097 75.0173 404.652 75.4437 405.093 75.9759C405.534 76.508 405.85 77.1324 406.017 77.8029C406.185 78.4734 406.2 79.1729 406.061 79.85L394.178 155.9C393.934 157.418 393.167 158.803 392.01 159.815C390.853 160.827 389.378 161.403 387.841 161.442Z" fill="url(#paint40_linear_63_4478)"/>
<path d="M402.892 74.78C403.108 75.4993 403.162 76.2574 403.05 77L391.168 153.047C390.897 154.553 390.123 155.922 388.971 156.93C387.82 157.937 386.36 158.524 384.831 158.592H296.109C295.618 158.58 295.133 158.473 294.683 158.275C294.97 159.218 295.56 160.04 296.363 160.613C297.165 161.186 298.134 161.478 299.119 161.444H387.841C389.37 161.376 390.83 160.789 391.981 159.782C393.133 158.774 393.907 157.405 394.178 155.899L406.061 79.85C406.256 78.7624 406.04 77.641 405.454 76.7039C404.869 75.7669 403.955 75.0811 402.892 74.78Z" fill="#B3CDFA"/>
<path d="M404.16 92.207L406.06 80.007C406.199 79.3299 406.184 78.6304 406.016 77.9599C405.849 77.2894 405.533 76.665 405.092 76.1328C404.651 75.6007 404.096 75.1743 403.468 74.8851C402.841 74.5959 402.156 74.4513 401.465 74.462H312.744C311.215 74.5304 309.755 75.1165 308.604 76.1242C307.452 77.1318 306.678 78.501 306.407 80.007L304.507 92.207H404.16Z" fill="#F5554F"/>
<path d="M403.367 74.938L403.05 76.523V77L400.674 91.893L403.843 93.952L406.061 80.01C406.261 78.9839 406.102 77.9204 405.612 76.9973C405.121 76.0741 404.329 75.3472 403.367 74.938Z" fill="#DB3029"/>
<path d="M318.606 83.335C318.519 83.7485 318.303 84.124 317.991 84.4085C317.678 84.6929 317.284 84.8719 316.864 84.92C316.668 84.9246 316.473 84.8838 316.295 84.8008C316.117 84.7178 315.96 84.5948 315.838 84.4414C315.715 84.2881 315.629 84.1084 315.587 83.9165C315.545 83.7246 315.548 83.5256 315.596 83.335C315.684 82.9216 315.899 82.5462 316.212 82.262C316.525 81.9777 316.919 81.799 317.339 81.751C317.717 81.7942 318.062 81.985 318.299 82.2818C318.536 82.5785 318.647 82.9572 318.606 83.335Z" fill="#E3EDFE"/>
<path d="M325.1 83.335C325.012 83.7486 324.797 84.1241 324.484 84.4086C324.171 84.693 323.777 84.8719 323.357 84.92C323.161 84.9244 322.966 84.8836 322.788 84.8005C322.61 84.7174 322.454 84.5944 322.331 84.441C322.209 84.2877 322.123 84.1081 322.081 83.9162C322.039 83.7244 322.042 83.5255 322.09 83.335C322.178 82.9214 322.393 82.5459 322.706 82.2616C323.019 81.9773 323.413 81.7987 323.833 81.751C324.025 81.7584 324.214 81.8071 324.386 81.8938C324.557 81.9805 324.708 82.1031 324.829 82.2533C324.949 82.4036 325.035 82.578 325.082 82.7646C325.129 82.9512 325.135 83.1458 325.1 83.335Z" fill="white"/>
<path d="M325.1 83.335C325.012 83.7486 324.797 84.1241 324.484 84.4086C324.171 84.693 323.777 84.8719 323.357 84.92C323.161 84.9244 322.966 84.8836 322.788 84.8005C322.61 84.7174 322.454 84.5944 322.331 84.441C322.209 84.2877 322.123 84.1081 322.081 83.9162C322.039 83.7244 322.042 83.5255 322.09 83.335C322.178 82.9214 322.393 82.5459 322.706 82.2616C323.019 81.9773 323.413 81.7987 323.833 81.751C324.025 81.7584 324.214 81.8071 324.386 81.8938C324.557 81.9805 324.708 82.1031 324.829 82.2533C324.949 82.4036 325.035 82.578 325.082 82.7646C325.129 82.9512 325.135 83.1458 325.1 83.335Z" fill="#E3EDFE"/>
<path d="M331.756 83.335C331.669 83.7486 331.453 84.1243 331.14 84.4087C330.827 84.6932 330.433 84.8721 330.013 84.92C329.817 84.9244 329.622 84.8836 329.444 84.8005C329.266 84.7174 329.11 84.5944 328.987 84.441C328.865 84.2877 328.779 84.1081 328.737 83.9162C328.695 83.7244 328.698 83.5255 328.746 83.335C328.834 82.9215 329.049 82.5461 329.362 82.2618C329.675 81.9775 330.069 81.7988 330.489 81.751C330.681 81.7582 330.87 81.8068 331.042 81.8934C331.214 81.9801 331.365 82.1027 331.485 82.253C331.605 82.4033 331.692 82.5778 331.738 82.7645C331.785 82.9512 331.791 83.1457 331.756 83.335Z" fill="#E3EDFE"/>
<path d="M332.073 115.5C331.496 118.765 329.809 121.731 327.298 123.896C324.786 126.061 321.604 127.293 318.289 127.382C316.797 127.425 315.315 127.129 313.954 126.518C312.592 125.907 311.386 124.996 310.426 123.854C309.466 122.711 308.777 121.366 308.41 119.919C308.044 118.473 308.009 116.962 308.308 115.5C308.885 112.235 310.572 109.269 313.084 107.104C315.595 104.939 318.777 103.708 322.092 103.618C328.588 103.615 333.024 109 332.073 115.5Z" fill="#89ADE9"/>
<path d="M393.386 112.328H338.886L339.361 109.16H393.861L393.386 112.328Z" fill="#C2D7FB"/>
<path d="M391.96 121.676H337.46L337.935 118.507H392.435L391.96 121.676Z" fill="#C2D7FB"/>
<path d="M356.472 131.023H336.034L336.509 127.696H356.947L356.472 131.023Z" fill="#C2D7FB"/>
<path opacity="0.829" d="M269.809 69.8681L263.947 106.941H281.058C283.083 106.879 285.025 106.12 286.555 104.793C288.085 103.465 289.111 101.65 289.458 99.6541L295.478 60.3621H280.9C278.228 60.3878 275.651 61.3552 273.622 63.094C271.593 64.8328 270.243 67.2316 269.809 69.8681Z" fill="#5774C1"/>
<path opacity="0.854" d="M269.809 69.8679L263.947 106.783H281.058C283.076 106.696 285.004 105.928 286.53 104.605C288.055 103.281 289.087 101.48 289.458 99.495L295.478 60.3619H281.058C278.361 60.3584 275.75 61.3118 273.691 63.0525C271.631 64.7932 270.255 67.2083 269.809 69.8679Z" fill="#5270BF"/>
<path opacity="0.878" d="M269.809 69.8681L263.947 106.625H280.9C282.926 106.567 284.87 105.809 286.401 104.481C287.933 103.152 288.957 101.335 289.3 99.3371L295.321 60.3621H280.9C278.228 60.3878 275.651 61.3552 273.622 63.094C271.593 64.8328 270.243 67.2316 269.809 69.8681Z" fill="#4D6BBD"/>
<path opacity="0.902" d="M269.809 69.868L264.109 106.468H280.9C282.891 106.435 284.808 105.703 286.314 104.4C287.82 103.096 288.819 101.305 289.138 99.339L295 60.521H280.741C278.095 60.4876 275.527 61.4173 273.516 63.137C271.504 64.8566 270.187 67.2489 269.809 69.868Z" fill="#4867BB"/>
<path opacity="0.927" d="M269.968 69.7101L264.268 106.31H280.9C282.884 106.252 284.787 105.511 286.288 104.212C287.789 102.913 288.796 101.135 289.138 99.1801L295 60.3621H280.9C278.256 60.3373 275.693 61.2703 273.683 62.9886C271.674 64.7069 270.354 67.0944 269.968 69.7101Z" fill="#4363B9"/>
<path opacity="0.951" d="M269.968 69.7101L264.268 106.149H280.9C282.884 106.091 284.787 105.35 286.288 104.051C287.789 102.752 288.796 100.975 289.138 99.0201L295 60.3621H280.9C278.256 60.3373 275.693 61.2703 273.683 62.9886C271.674 64.7069 270.354 67.0944 269.968 69.7101Z" fill="#3E5FB8"/>
<path opacity="0.976" d="M269.968 69.7101L264.268 105.991H280.745C282.718 105.953 284.614 105.216 286.094 103.91C287.574 102.604 288.542 100.815 288.825 98.8621L294.687 60.3621H280.741C278.13 60.396 275.616 61.3535 273.644 63.0646C271.672 64.7758 270.37 67.1302 269.968 69.7101Z" fill="#395BB6"/>
<path d="M269.968 69.71L264.268 105.832H280.587C282.522 105.75 284.372 105.017 285.839 103.752C287.305 102.487 288.302 100.764 288.667 98.862L294.529 60.521H280.583C278.005 60.5209 275.512 61.4496 273.563 63.1372C271.614 64.8248 270.337 67.1582 269.968 69.71Z" fill="#3457B4"/>
<path d="M279 106.783H219.43C214.519 106.783 211.192 102.822 211.83 97.9109L223.871 19.6459C224.313 17.2116 225.577 15.0027 227.452 13.3879C229.326 11.773 231.698 10.85 234.171 10.7729H293.742C298.653 10.7729 301.98 14.7339 301.342 19.6459L289.3 97.9109C288.858 100.345 287.594 102.554 285.719 104.169C283.845 105.783 281.473 106.706 279 106.783Z" fill="url(#paint41_linear_63_4478)"/>
<path d="M298.327 12.041C299.482 13.7604 299.938 15.8562 299.6 17.9L287.554 96.168C287.112 98.6022 285.848 100.811 283.973 102.426C282.099 104.04 279.727 104.963 277.254 105.04H217.685C216.039 105.079 214.426 104.578 213.091 103.614C213.809 104.618 214.762 105.432 215.866 105.984C216.971 106.537 218.193 106.811 219.428 106.783H279C281.473 106.706 283.845 105.783 285.719 104.169C287.594 102.554 288.858 100.345 289.3 97.911L301.341 19.646C301.593 18.2236 301.445 16.759 300.913 15.4159C300.381 14.0729 299.485 12.9044 298.327 12.041Z" fill="#B3CDFA"/>
<path d="M275.513 40.717C273.929 51.174 264.106 59.57 253.649 59.57C243.192 59.57 236.063 51.17 237.649 40.717C239.235 30.264 249.056 21.864 259.512 21.864C269.968 21.864 277.1 30.26 275.513 40.717Z" fill="#89ADE9"/>
<path d="M265.373 39.4499C264.958 41.8539 263.719 44.0385 261.869 45.6285C260.019 47.2185 257.673 48.1146 255.234 48.1629C250.322 48.1629 247.154 44.2019 247.787 39.4499C248.202 37.0456 249.44 34.8607 251.291 33.2705C253.141 31.6803 255.488 30.7841 257.927 30.7359C262.838 30.5769 266.165 34.5379 265.373 39.4499Z" fill="#C2D7FB"/>
<path d="M253.649 59.57C259.367 59.4473 264.816 57.1203 268.859 53.075C264.304 50.1389 258.88 48.8528 253.491 49.431C248.946 49.7966 244.525 51.0899 240.499 53.231C242.023 55.2632 244.013 56.8998 246.302 58.0029C248.59 59.106 251.11 59.6434 253.649 59.57Z" fill="#C2D7FB"/>
<path d="M275.354 71.928H230.043L230.36 69.235H275.83L275.354 71.928Z" fill="#C2D7FB"/>
<path d="M274.087 79.691H228.776L229.251 77H274.562L274.087 79.691Z" fill="#C2D7FB"/>
<path d="M244.619 87.454H227.508L227.983 84.761H244.936L244.619 87.454Z" fill="#C2D7FB"/>
<path opacity="0.854" d="M477.672 129.756L454.858 129.914C453.437 129.922 452.066 130.437 450.991 131.366C449.916 132.296 449.209 133.579 448.996 134.984L445.035 158.59C444.827 159.739 445.053 160.925 445.669 161.917C445.827 162.234 445.986 162.393 446.144 162.709L446.302 162.868C446.461 163.026 446.778 163.343 446.936 163.502C446.957 163.501 446.978 163.505 446.997 163.513C447.017 163.521 447.034 163.532 447.049 163.547C447.064 163.562 447.076 163.579 447.084 163.599C447.092 163.618 447.095 163.639 447.095 163.66C447.337 163.853 447.603 164.013 447.887 164.135C447.908 164.135 447.929 164.138 447.948 164.146C447.968 164.154 447.985 164.166 448 164.181C448.015 164.196 448.026 164.213 448.034 164.233C448.042 164.252 448.046 164.273 448.045 164.294C448.334 164.469 448.659 164.578 448.996 164.611H449.154C449.471 164.611 449.788 164.769 450.263 164.769L472.919 164.611C473.461 164.598 473.997 164.49 474.503 164.294L479.89 130.394C479.249 129.926 478.464 129.699 477.672 129.756Z" fill="#5270BF"/>
<path opacity="0.878" d="M477.672 129.756L455.016 129.914C453.602 129.947 452.244 130.471 451.174 131.396C450.105 132.321 449.39 133.59 449.154 134.984L445.193 158.432C444.985 159.581 445.211 160.767 445.827 161.759C445.985 162.076 446.144 162.234 446.302 162.551L446.461 162.709C446.619 162.868 446.936 163.185 447.095 163.343C447.116 163.343 447.137 163.346 447.156 163.354C447.176 163.362 447.193 163.374 447.208 163.389C447.223 163.404 447.234 163.421 447.242 163.441C447.25 163.46 447.254 163.481 447.253 163.502C447.495 163.695 447.761 163.855 448.045 163.977C448.066 163.976 448.087 163.98 448.106 163.988C448.126 163.996 448.143 164.007 448.158 164.022C448.173 164.037 448.185 164.054 448.193 164.074C448.201 164.093 448.204 164.114 448.204 164.135C448.493 164.311 448.817 164.419 449.154 164.452H449.313C449.629 164.452 449.946 164.611 450.422 164.611L473.077 164.452C473.62 164.439 474.156 164.332 474.662 164.135L480.048 130.389C479.339 129.941 478.51 129.721 477.672 129.756Z" fill="#4D6BBD"/>
<path opacity="0.902" d="M477.672 129.756L455.172 129.914C453.758 129.947 452.4 130.471 451.33 131.396C450.261 132.321 449.546 133.59 449.31 134.984L445.349 158.273C445.141 159.422 445.366 160.608 445.982 161.6C446.141 161.917 446.299 162.076 446.458 162.393L446.616 162.551C446.775 162.709 447.091 163.026 447.25 163.185C447.271 163.185 447.292 163.188 447.311 163.196C447.33 163.204 447.348 163.216 447.363 163.23C447.377 163.245 447.389 163.263 447.397 163.282C447.405 163.301 447.408 163.322 447.408 163.343C447.65 163.536 447.917 163.696 448.201 163.818C448.222 163.818 448.243 163.821 448.262 163.829C448.282 163.837 448.299 163.849 448.314 163.864C448.329 163.879 448.34 163.896 448.348 163.916C448.356 163.935 448.36 163.956 448.359 163.977C448.676 164.135 448.993 164.135 449.31 164.294H449.468C449.785 164.294 450.102 164.452 450.577 164.452L473.077 164.294C473.62 164.281 474.156 164.173 474.662 163.977L480.048 130.389C479.347 129.922 478.512 129.699 477.672 129.756Z" fill="#4867BB"/>
<path opacity="0.927" d="M477.672 129.756L455.333 129.914C453.934 129.913 452.58 130.404 451.508 131.303C450.436 132.201 449.715 133.448 449.471 134.825L445.671 157.956C445.463 159.105 445.688 160.291 446.304 161.284C446.463 161.6 446.621 161.759 446.78 162.076L446.938 162.234L447.572 162.868C447.593 162.868 447.614 162.871 447.633 162.879C447.652 162.887 447.67 162.899 447.685 162.913C447.699 162.928 447.711 162.946 447.719 162.965C447.727 162.984 447.73 163.005 447.73 163.026C447.972 163.219 448.238 163.379 448.522 163.502C448.543 163.501 448.564 163.505 448.583 163.513C448.603 163.521 448.62 163.532 448.635 163.547C448.65 163.562 448.662 163.579 448.67 163.599C448.678 163.618 448.681 163.639 448.681 163.66C448.998 163.818 449.315 163.818 449.631 163.977H449.79C450.107 163.977 450.424 164.135 450.899 164.135L473.238 163.977C473.78 163.964 474.316 163.856 474.822 163.66L480.209 130.389C479.441 129.94 478.561 129.72 477.672 129.756Z" fill="#4363B9"/>
<path opacity="0.951" d="M477.672 129.756L455.491 129.914C454.092 129.913 452.738 130.405 451.666 131.303C450.594 132.201 449.873 133.448 449.629 134.825L445.829 157.798C445.621 158.947 445.847 160.133 446.463 161.125C446.621 161.442 446.78 161.6 446.938 161.917L447.097 162.076L447.73 162.709C447.751 162.709 447.772 162.712 447.791 162.72C447.811 162.728 447.828 162.74 447.843 162.755C447.858 162.77 447.87 162.787 447.878 162.807C447.886 162.826 447.889 162.847 447.889 162.868C448.131 163.061 448.397 163.221 448.681 163.343C448.702 163.343 448.723 163.346 448.742 163.354C448.762 163.362 448.779 163.374 448.794 163.389C448.809 163.404 448.82 163.421 448.828 163.441C448.836 163.46 448.84 163.481 448.839 163.502C449.156 163.66 449.473 163.66 449.79 163.818H449.948C450.265 163.818 450.582 163.977 451.057 163.977L473.238 163.818C473.78 163.805 474.316 163.698 474.822 163.502L480.05 130.389C479.349 129.921 478.513 129.699 477.672 129.756Z" fill="#3E5FB8"/>
<path opacity="0.976" d="M477.672 129.756L455.65 129.914C454.27 129.918 452.938 130.416 451.893 131.316C450.847 132.217 450.158 133.461 449.95 134.825L446.15 157.64C445.958 158.789 446.183 159.969 446.784 160.967C446.942 161.284 447.1 161.442 447.259 161.759L447.417 161.917L448.051 162.551C448.072 162.55 448.093 162.554 448.112 162.562C448.132 162.57 448.149 162.581 448.164 162.596C448.179 162.611 448.191 162.628 448.199 162.648C448.207 162.667 448.21 162.688 448.21 162.709C448.451 162.903 448.718 163.063 449.002 163.185C449.023 163.185 449.044 163.188 449.063 163.196C449.082 163.204 449.1 163.216 449.115 163.23C449.129 163.245 449.141 163.263 449.149 163.282C449.157 163.301 449.16 163.322 449.16 163.343C449.477 163.502 449.794 163.502 450.111 163.66H450.269C450.586 163.66 450.903 163.818 451.22 163.818L473.242 163.66C473.783 163.631 474.316 163.525 474.826 163.343L480.054 130.389C479.352 129.921 478.514 129.698 477.672 129.756Z" fill="#395BB6"/>
<path d="M477.672 129.756L455.808 129.914C454.428 129.918 453.096 130.416 452.05 131.316C451.005 132.217 450.316 133.461 450.108 134.825L446.308 157.481C446.141 158.613 446.307 159.768 446.784 160.808C446.942 161.125 447.1 161.284 447.259 161.6L447.417 161.759L448.051 162.393C448.072 162.392 448.093 162.396 448.112 162.404C448.132 162.412 448.149 162.423 448.164 162.438C448.179 162.453 448.191 162.47 448.199 162.49C448.207 162.509 448.21 162.53 448.21 162.551C448.452 162.744 448.718 162.904 449.002 163.026C449.023 163.026 449.044 163.029 449.063 163.037C449.083 163.045 449.1 163.057 449.115 163.072C449.13 163.087 449.141 163.104 449.149 163.124C449.157 163.143 449.161 163.164 449.16 163.185C449.477 163.343 449.794 163.343 450.111 163.502H450.269C450.586 163.502 450.903 163.66 451.22 163.66L473.083 163.502C473.624 163.473 474.158 163.366 474.668 163.185L479.896 130.548C479.615 130.248 479.267 130.02 478.88 129.882C478.493 129.744 478.079 129.701 477.672 129.756Z" fill="#3457B4"/>
<path d="M477.2 163.66L450.583 163.977C449.685 163.989 448.795 163.804 447.975 163.436C447.156 163.069 446.426 162.526 445.838 161.848C445.249 161.169 444.816 160.37 444.569 159.506C444.321 158.643 444.265 157.735 444.404 156.848L449 129.28C449.296 127.643 450.155 126.161 451.428 125.091C452.701 124.021 454.308 123.429 455.971 123.418L482.587 123.102C483.485 123.09 484.375 123.275 485.195 123.643C486.014 124.01 486.744 124.553 487.332 125.231C487.921 125.91 488.354 126.709 488.601 127.573C488.849 128.436 488.905 129.343 488.766 130.231L484.168 157.8C483.871 159.436 483.013 160.916 481.741 161.986C480.468 163.056 478.862 163.648 477.2 163.66Z" fill="url(#paint42_linear_63_4478)"/>
<path d="M485.752 123.894C486.444 125.091 486.67 126.501 486.386 127.854L481.786 155.422C481.49 157.059 480.631 158.54 479.358 159.611C478.085 160.681 476.478 161.273 474.815 161.284L448.2 161.6C447.145 161.603 446.107 161.33 445.189 160.808C445.721 161.771 446.501 162.572 447.449 163.13C448.396 163.687 449.476 163.98 450.576 163.977L477.193 163.66C478.856 163.649 480.463 163.057 481.736 161.987C483.009 160.916 483.868 159.435 484.164 157.798L488.758 130.231C488.955 128.995 488.774 127.728 488.237 126.597C487.701 125.466 486.834 124.523 485.752 123.894Z" fill="#B3CDFA"/>
<path d="M456.6 138.153H458.343L457.076 145.916H455.333L455.808 142.906H452.8L452.325 145.916H450.58L451.848 138.153H453.59L453.115 141.48H456.125L456.6 138.153Z" fill="#3457B4"/>
<path d="M463.1 139.578L461.991 145.916H460.248L461.357 139.578H459.139L459.456 137.994H465.477L465.16 139.578H463.1Z" fill="#3457B4"/>
<path d="M473.236 141L470.384 145.278H469.433L468.008 141L467.215 145.912H465.473L466.74 138.149H469.117L470.384 142.426L473.077 138.149H475.454L474.186 145.912H472.444L473.236 141Z" fill="#3457B4"/>
<path d="M476.088 145.757L477.355 137.994H479.1L477.991 144.331H481.318L481 145.916L476.088 145.757Z" fill="#3457B4"/>
<path d="M197.406 135.776L170.789 136.093C169.891 136.105 169.001 135.92 168.181 135.552C167.362 135.184 166.632 134.642 166.044 133.963C165.456 133.284 165.023 132.485 164.775 131.621C164.528 130.758 164.472 129.85 164.611 128.963L169.205 101.396C169.501 99.7595 170.36 98.2779 171.633 97.2075C172.906 96.1371 174.513 95.5451 176.176 95.534L202.793 95.059C203.691 95.0474 204.581 95.232 205.401 95.5999C206.22 95.9678 206.95 96.5101 207.538 97.1891C208.127 97.868 208.56 98.6671 208.807 99.5307C209.055 100.394 209.111 101.301 208.972 102.189L204.377 129.756C204.088 131.41 203.236 132.912 201.966 134.01C200.695 135.107 199.084 135.731 197.406 135.776Z" fill="#F5554F"/>
<path d="M205.8 95.851C206.492 97.048 206.718 98.4586 206.434 99.812L201.839 127.379C201.543 129.016 200.684 130.497 199.411 131.568C198.138 132.638 196.531 133.23 194.868 133.241L168.252 133.558C167.197 133.56 166.159 133.287 165.241 132.766C165.773 133.728 166.553 134.53 167.501 135.087C168.448 135.645 169.529 135.937 170.628 135.934L197.245 135.618C198.908 135.607 200.515 135.015 201.788 133.944C203.061 132.874 203.92 131.392 204.216 129.756L208.81 102.188C209.043 100.949 208.877 99.6683 208.336 98.5297C207.795 97.391 206.907 96.4532 205.8 95.851Z" fill="#DB3029"/>
<path d="M173.641 113.12L173.958 111.536H178.077L177.285 116.764C177.251 117.165 177.135 117.555 176.944 117.909C176.753 118.263 176.492 118.575 176.176 118.824C175.644 119.284 174.978 119.562 174.276 119.616C173.84 119.651 173.404 119.566 173.013 119.37C172.622 119.175 172.292 118.876 172.058 118.507L173.167 117.24C173.299 117.464 173.483 117.653 173.703 117.791C173.924 117.929 174.175 118.012 174.434 118.032C174.557 118.03 174.677 118 174.787 117.945C174.897 117.89 174.993 117.812 175.068 117.715C175.291 117.435 175.453 117.111 175.543 116.764L176.177 112.964L173.641 113.12Z" fill="white"/>
<path d="M183.781 119.458L183.306 117.715H179.979L179.028 119.458H177.128L181.881 111.536H183.623L185.683 119.458H183.781ZM182.513 113.912L181.088 116.289H182.988L182.513 113.912Z" fill="white"/>
<path d="M189.484 116.606L192.336 111.536H194.236L189.8 119.458H188.374L186.632 111.536H188.532L189.484 116.606Z" fill="white"/>
<path d="M198.832 119.3L198.357 117.557H195.03L194.079 119.3H192.179L196.932 111.379H198.674L200.734 119.3H198.832ZM197.406 113.755L195.98 116.132H197.88L197.406 113.755Z" fill="white"/>
<path opacity="0.902" d="M279.157 154.313L283.118 128.805V127.538C283.118 127.221 283.118 127.062 282.959 126.904V126.587C282.801 126.27 282.801 126.112 282.642 125.795C282.484 125.636 282.484 125.478 282.325 125.32C282.325 125.161 282.167 125.161 282.167 125.003C281.694 124.356 281.074 123.832 280.357 123.474C279.641 123.115 278.849 122.933 278.048 122.943L261.571 123.102L256.026 159.382L273.453 159.224C274.852 159.233 276.205 158.725 277.253 157.798C277.759 157.343 278.187 156.808 278.52 156.214C278.85 155.626 279.066 154.981 279.157 154.313Z" fill="#4867BB"/>
<path opacity="0.927" d="M279 154.313L282.961 128.805V127.538C282.985 127.315 282.929 127.09 282.803 126.904V126.587C282.644 126.27 282.644 126.112 282.486 125.795C282.327 125.636 282.327 125.478 282.169 125.32C282.169 125.161 282.011 125.161 282.011 125.003C281.538 124.356 280.917 123.832 280.201 123.474C279.484 123.115 278.692 122.933 277.891 122.943L261.414 123.102L255.869 159.382L273.138 159.224C273.81 159.243 274.479 159.126 275.105 158.881C275.731 158.636 276.301 158.268 276.782 157.798C277.289 157.343 277.717 156.808 278.05 156.214C278.551 155.69 278.882 155.028 279 154.313Z" fill="#4363B9"/>
<path opacity="0.951" d="M279 154.154L282.961 128.647V127.379C282.984 127.156 282.928 126.931 282.803 126.745V126.429C282.644 126.112 282.644 125.953 282.486 125.636C282.327 125.478 282.327 125.32 282.169 125.161C282.169 125.003 282.011 125.003 282.011 124.844C281.538 124.198 280.917 123.673 280.2 123.315C279.484 122.957 278.692 122.775 277.891 122.785L261.573 122.943L256.028 159.066L273.297 158.907C273.969 158.926 274.638 158.809 275.264 158.564C275.89 158.319 276.46 157.951 276.941 157.481C277.447 157.026 277.875 156.491 278.208 155.897C278.626 155.399 278.899 154.796 279 154.154Z" fill="#3E5FB8"/>
<path opacity="0.976" d="M278.84 154.154L282.801 128.805V127.538C282.825 127.315 282.768 127.09 282.642 126.904V126.587C282.484 126.27 282.484 126.112 282.325 125.795C282.167 125.636 282.167 125.478 282.009 125.32C282.009 125.161 281.85 125.161 281.85 125.003C281.377 124.356 280.757 123.832 280.04 123.473C279.324 123.115 278.532 122.933 277.731 122.943L261.571 123.102L256.026 159.066L273.136 158.907C273.808 158.926 274.477 158.809 275.103 158.564C275.729 158.319 276.299 157.951 276.78 157.481C277.287 157.026 277.715 156.491 278.048 155.897C278.468 155.401 278.742 154.797 278.84 154.154Z" fill="#395BB6"/>
<path d="M278.682 154L282.642 128.651V127.383C282.665 127.16 282.609 126.935 282.484 126.749V126.433C282.325 126.116 282.325 125.957 282.167 125.64C282.009 125.482 282.009 125.324 281.85 125.165C281.85 125.007 281.692 125.007 281.692 124.848C281.239 124.219 280.644 123.705 279.956 123.347C279.269 122.99 278.506 122.799 277.731 122.789L261.571 122.947L256.026 158.753L272.978 158.594C273.65 158.613 274.319 158.496 274.945 158.251C275.571 158.006 276.141 157.638 276.622 157.168C277.088 156.733 277.512 156.256 277.889 155.742C278.309 155.246 278.584 154.643 278.682 154Z" fill="#3457B4"/>
<path d="M271.869 159.541L245.252 159.858C244.354 159.87 243.464 159.685 242.644 159.317C241.825 158.949 241.095 158.407 240.507 157.728C239.919 157.049 239.486 156.25 239.238 155.386C238.991 154.523 238.935 153.615 239.074 152.728L243.668 125.161C243.964 123.524 244.823 122.043 246.096 120.973C247.369 119.902 248.976 119.31 250.639 119.299L277.256 118.824C278.154 118.812 279.044 118.997 279.864 119.365C280.683 119.733 281.412 120.275 282.001 120.954C282.589 121.633 283.022 122.432 283.269 123.295C283.517 124.159 283.573 125.066 283.434 125.953L278.84 153.52C278.551 155.174 277.699 156.677 276.428 157.774C275.158 158.871 273.547 159.495 271.869 159.541Z" fill="url(#paint43_linear_63_4478)"/>
<path d="M280.424 119.616C281.117 120.813 281.343 122.224 281.058 123.577L276.463 151.144C276.167 152.781 275.308 154.262 274.035 155.333C272.762 156.403 271.155 156.995 269.492 157.006L242.876 157.323C241.821 157.325 240.783 157.052 239.866 156.531C240.397 157.493 241.178 158.295 242.125 158.852C243.073 159.41 244.153 159.702 245.252 159.699L271.869 159.382C273.532 159.371 275.139 158.779 276.412 157.708C277.685 156.638 278.544 155.157 278.84 153.52L283.434 125.953C283.632 124.716 283.45 123.449 282.913 122.317C282.375 121.186 281.508 120.244 280.424 119.616Z" fill="#274187"/>
<path d="M252.223 139.9C253.253 139.85 254.222 139.394 254.917 138.633L256.026 139.9C254.97 140.955 253.557 141.577 252.065 141.643C251.477 141.667 250.891 141.567 250.345 141.349C249.799 141.13 249.305 140.799 248.896 140.376C248.532 139.911 248.273 139.373 248.136 138.799C248 138.224 247.989 137.627 248.104 137.048C248.314 135.701 248.985 134.469 250.004 133.563C250.992 132.639 252.296 132.129 253.648 132.137C254.332 132.09 255.016 132.226 255.629 132.533C256.242 132.839 256.762 133.305 257.134 133.88L255.708 135.306C255.501 134.912 255.175 134.594 254.777 134.395C254.379 134.196 253.929 134.127 253.49 134.197C252.708 134.215 251.959 134.512 251.377 135.035C250.796 135.558 250.421 136.272 250.321 137.048C250.228 137.404 250.223 137.778 250.306 138.136C250.389 138.495 250.558 138.828 250.797 139.108C250.956 139.578 251.431 139.9 252.223 139.9Z" fill="white"/>
<path d="M260.62 134.35C260.425 134.531 260.264 134.746 260.145 134.984C260.145 135.301 260.145 135.459 260.462 135.618C260.958 135.869 261.494 136.03 262.046 136.093C262.76 136.212 263.422 136.543 263.946 137.043C264.159 137.305 264.301 137.618 264.357 137.951C264.412 138.284 264.38 138.626 264.263 138.943C264.123 139.766 263.671 140.503 263 141C262.257 141.52 261.372 141.797 260.465 141.792C259.778 141.818 259.093 141.689 258.463 141.415C257.832 141.141 257.271 140.728 256.821 140.208L258.247 138.624C258.561 138.997 258.947 139.302 259.383 139.52C259.819 139.738 260.295 139.864 260.782 139.891C261.119 139.858 261.443 139.75 261.732 139.574C261.928 139.394 262.089 139.179 262.208 138.941C262.208 138.624 262.208 138.465 262.049 138.307C261.662 138.067 261.232 137.905 260.782 137.832C260.043 137.643 259.345 137.32 258.722 136.881C258.517 136.613 258.37 136.307 258.288 135.98C258.206 135.653 258.192 135.313 258.247 134.981C258.309 134.57 258.454 134.176 258.671 133.822C258.889 133.468 259.176 133.162 259.514 132.921C260.198 132.403 261.033 132.124 261.891 132.129C262.483 132.158 263.069 132.264 263.633 132.446C264.213 132.567 264.724 132.908 265.059 133.397L263.792 134.981C263.504 134.683 263.159 134.446 262.778 134.283C262.398 134.12 261.988 134.034 261.574 134.03C261.227 134.009 260.885 134.124 260.62 134.35Z" fill="white"/>
<path d="M268.7 134.192C268.505 134.372 268.344 134.587 268.225 134.825C268.225 135.142 268.225 135.301 268.542 135.459C269.037 135.711 269.574 135.872 270.126 135.934C270.84 136.054 271.502 136.385 272.026 136.885C272.24 137.147 272.381 137.46 272.437 137.793C272.492 138.126 272.46 138.468 272.343 138.785C272.203 139.61 271.749 140.348 271.076 140.845C270.333 141.365 269.448 141.641 268.541 141.637C267.854 141.663 267.169 141.534 266.539 141.26C265.908 140.986 265.347 140.573 264.897 140.053L266.323 138.468C266.637 138.841 267.023 139.146 267.459 139.364C267.895 139.582 268.371 139.709 268.858 139.736C269.194 139.703 269.519 139.595 269.808 139.419C270.125 139.26 270.125 139.102 270.284 138.785C270.284 138.468 270.284 138.31 270.125 138.151C269.738 137.912 269.307 137.75 268.858 137.676C268.12 137.487 267.422 137.165 266.798 136.726C266.594 136.458 266.446 136.152 266.364 135.825C266.283 135.498 266.269 135.158 266.323 134.826C266.385 134.415 266.53 134.022 266.747 133.668C266.965 133.314 267.252 133.008 267.59 132.767C268.273 132.248 269.109 131.97 269.967 131.975C270.559 132.003 271.145 132.11 271.71 132.291C272.289 132.414 272.8 132.754 273.135 133.242L271.868 134.826C271.58 134.529 271.235 134.292 270.854 134.129C270.473 133.966 270.064 133.88 269.65 133.876C269.334 134.033 269.017 134.033 268.7 134.192Z" fill="white"/>
<path d="M567.82 186.474H499.535C498.837 186.489 498.144 186.349 497.506 186.064C496.868 185.779 496.302 185.356 495.847 184.825C495.393 184.295 495.062 183.67 494.878 182.997C494.694 182.323 494.661 181.617 494.783 180.929L501.12 136.729C501.39 135.223 502.165 133.853 503.317 132.846C504.468 131.838 505.928 131.252 507.457 131.184H575.741C576.439 131.169 577.132 131.309 577.77 131.594C578.408 131.879 578.974 132.302 579.429 132.832C579.883 133.363 580.215 133.987 580.399 134.661C580.583 135.335 580.616 136.041 580.494 136.729L574.157 180.929C573.914 182.447 573.147 183.833 571.99 184.846C570.832 185.858 569.357 186.434 567.82 186.474Z" fill="url(#paint44_linear_63_4478)"/>
<path d="M578.276 131.974C578.802 132.942 579.023 134.046 578.91 135.142L572.572 179.342C572.301 180.848 571.527 182.217 570.375 183.225C569.224 184.232 567.764 184.819 566.235 184.887H497.951C497.072 184.846 496.211 184.63 495.416 184.253C495.826 184.971 496.43 185.559 497.158 185.951C497.886 186.344 498.71 186.524 499.535 186.471H567.82C569.349 186.403 570.809 185.816 571.96 184.809C573.112 183.801 573.886 182.432 574.157 180.926L580.494 136.726C580.565 135.81 580.399 134.891 580.01 134.058C579.621 133.226 579.024 132.508 578.276 131.974Z" fill="#B3CDFA"/>
<path d="M563.225 178.711H504.605C504.046 178.726 503.49 178.616 502.978 178.389C502.467 178.162 502.012 177.823 501.648 177.398C501.284 176.973 501.02 176.472 500.874 175.932C500.728 175.392 500.704 174.826 500.805 174.275L505.558 141.163C505.748 139.946 506.36 138.835 507.287 138.024C508.214 137.213 509.397 136.754 510.628 136.727H569.247C569.806 136.712 570.362 136.823 570.873 137.05C571.385 137.277 571.839 137.615 572.203 138.04C572.567 138.465 572.832 138.966 572.978 139.506C573.124 140.047 573.147 140.613 573.047 141.163L568.294 174.275C568.128 175.502 567.523 176.628 566.591 177.443C565.659 178.259 564.463 178.709 563.225 178.711Z" fill="#6C98E3"/>
<path d="M501.912 167.146L500.803 174.433C500.734 174.971 500.781 175.517 500.94 176.035C501.1 176.554 501.369 177.031 501.729 177.437C502.09 177.842 502.532 178.166 503.028 178.385C503.524 178.605 504.061 178.716 504.603 178.711H526.942L514.426 152.094L501.912 167.146Z" fill="#3457B4"/>
<path d="M514.9 160.016L515.692 161.442L517.592 159.065L514.423 152.094L508.561 159.065L509.828 161.442L511.096 159.858L512.522 162.868L514.9 160.016Z" fill="white"/>
<path d="M524.092 173.008L533.757 161.125L542 178.711H526.944L524.092 173.008Z" fill="#3457B4"/>
<path d="M559.106 150.985C558.769 153 557.752 154.839 556.223 156.194C554.694 157.549 552.747 158.339 550.706 158.432C549.767 158.463 548.832 158.282 547.973 157.902C547.113 157.522 546.35 156.953 545.741 156.237C545.132 155.521 544.692 154.677 544.455 153.768C544.217 152.859 544.188 151.907 544.369 150.985C544.706 148.97 545.724 147.132 547.252 145.777C548.781 144.421 550.728 143.632 552.769 143.539C553.708 143.508 554.643 143.689 555.502 144.069C556.362 144.449 557.125 145.018 557.734 145.733C558.343 146.449 558.782 147.293 559.02 148.202C559.258 149.112 559.287 150.063 559.106 150.985Z" fill="url(#paint45_linear_63_4478)"/>
<path d="M534.39 169.047L535.024 170.473L537.084 168.096L533.757 161.125L528.057 168.096L529.166 170.473L530.592 168.888L531.86 171.898L534.39 169.047Z" fill="white"/>
<path d="M221.329 189.484L194.713 189.801C193.815 189.813 192.925 189.628 192.105 189.261C191.286 188.893 190.556 188.351 189.968 187.672C189.379 186.993 188.946 186.194 188.699 185.33C188.451 184.467 188.395 183.56 188.534 182.672L193.128 155.105C193.424 153.469 194.283 151.987 195.556 150.917C196.829 149.846 198.436 149.254 200.099 149.243L226.716 148.926C227.614 148.914 228.504 149.099 229.324 149.467C230.143 149.835 230.873 150.377 231.461 151.056C232.049 151.735 232.482 152.534 232.73 153.397C232.978 154.26 233.034 155.168 232.895 156.055L228.3 183.622C228.027 185.27 227.175 186.766 225.897 187.84C224.619 188.915 222.999 189.498 221.329 189.484Z" fill="url(#paint46_linear_63_4478)"/>
<path d="M229.885 149.56C230.577 150.757 230.803 152.167 230.518 153.52L225.924 181.088C225.628 182.724 224.769 184.206 223.496 185.276C222.223 186.346 220.616 186.938 218.953 186.949L192.336 187.266C191.281 187.268 190.243 186.995 189.326 186.474C189.857 187.437 190.638 188.239 191.586 188.796C192.533 189.354 193.613 189.646 194.713 189.643L221.329 189.326C222.992 189.315 224.599 188.723 225.872 187.653C227.145 186.582 228.004 185.101 228.3 183.464L232.9 155.9C233.116 154.661 232.942 153.386 232.402 152.25C231.862 151.114 230.982 150.174 229.885 149.56Z" fill="#B3CDFA"/>
<path d="M201.05 171.265C201.54 171.255 202.021 171.136 202.46 170.918C202.898 170.699 203.283 170.385 203.585 170L204.694 171.268C203.638 172.324 202.225 172.945 200.733 173.011C200.145 173.035 199.559 172.935 199.013 172.716C198.467 172.498 197.973 172.166 197.564 171.743C197.2 171.278 196.941 170.74 196.805 170.166C196.668 169.592 196.657 168.995 196.772 168.416C196.825 167.756 197.023 167.116 197.351 166.541C197.679 165.966 198.13 165.47 198.672 165.089C199.615 164.195 200.859 163.686 202.158 163.663C202.82 163.617 203.481 163.756 204.068 164.064C204.656 164.371 205.146 164.836 205.485 165.406L204.059 166.832C203.852 166.438 203.526 166.12 203.128 165.921C202.73 165.722 202.28 165.653 201.841 165.723C201.085 165.746 200.359 166.025 199.782 166.515C199.466 166.764 199.205 167.075 199.014 167.43C198.823 167.784 198.707 168.173 198.672 168.574C198.579 168.93 198.574 169.304 198.657 169.662C198.74 170.021 198.909 170.354 199.148 170.634C199.681 171.075 200.359 171.3 201.05 171.265Z" fill="#3457B4"/>
<path d="M208.021 171.582L208.338 169.205H206.12L206.437 167.621H208.655L208.972 165.244H210.714L210.397 167.621H212.615L212.299 169.205H210.081L209.764 171.582H208.021Z" fill="#3457B4"/>
<path d="M215.467 171.582L215.784 169.205H213.566L213.883 167.621H216.1L216.417 165.244H218.16L217.843 167.621H220.061L219.744 169.205H217.526L217.209 171.582H215.467Z" fill="#3457B4"/>
</g>
<defs>
<linearGradient id="paint0_linear_63_4478" x1="125.32" y1="263.235" x2="369.621" y2="263.235" gradientUnits="userSpaceOnUse">
<stop stop-color="#E3EDFE"/>
<stop offset="1" stop-color="#BFD5FB"/>
</linearGradient>
<linearGradient id="paint1_linear_63_4478" x1="200.942" y1="170.631" x2="228.287" y2="170.631" gradientUnits="userSpaceOnUse">
<stop stop-color="#E3EDFE"/>
<stop offset="1" stop-color="#BFD5FB"/>
</linearGradient>
<linearGradient id="paint2_linear_63_4478" x1="250.798" y1="194.792" x2="269.624" y2="194.792" gradientUnits="userSpaceOnUse">
<stop stop-color="#E3EDFE"/>
<stop offset="1" stop-color="#BFD5FB"/>
</linearGradient>
<linearGradient id="paint3_linear_63_4478" x1="274.245" y1="198.753" x2="287.894" y2="198.753" gradientUnits="userSpaceOnUse">
<stop stop-color="#E3EDFE"/>
<stop offset="1" stop-color="#BFD5FB"/>
</linearGradient>
<linearGradient id="paint4_linear_63_4478" x1="26.559" y1="57.934" x2="61.692" y2="57.934" gradientUnits="userSpaceOnUse">
<stop stop-color="#E3EDFE"/>
<stop offset="1" stop-color="#D9E6FC"/>
</linearGradient>
<linearGradient id="paint5_linear_63_4478" x1="46.896" y1="73.302" x2="82.028" y2="73.302" gradientUnits="userSpaceOnUse">
<stop stop-color="#E3EDFE"/>
<stop offset="1" stop-color="#D9E6FC"/>
</linearGradient>
<linearGradient id="paint6_linear_63_4478" x1="67.334" y1="135.222" x2="113.437" y2="135.222" gradientUnits="userSpaceOnUse">
<stop stop-color="#E3EDFE"/>
<stop offset="1" stop-color="#D9E6FC"/>
</linearGradient>
<linearGradient id="paint7_linear_63_4478" x1="0" y1="177.998" x2="46.104" y2="177.998" gradientUnits="userSpaceOnUse">
<stop stop-color="#E3EDFE"/>
<stop offset="1" stop-color="#D9E6FC"/>
</linearGradient>
<linearGradient id="paint8_linear_63_4478" x1="453.273" y1="231.469" x2="488.406" y2="231.469" gradientUnits="userSpaceOnUse">
<stop stop-color="#E3EDFE"/>
<stop offset="1" stop-color="#D9E6FC"/>
</linearGradient>
<linearGradient id="paint9_linear_63_4478" x1="476.246" y1="216.101" x2="511.378" y2="216.101" gradientUnits="userSpaceOnUse">
<stop stop-color="#E3EDFE"/>
<stop offset="1" stop-color="#D9E6FC"/>
</linearGradient>
<linearGradient id="paint10_linear_63_4478" x1="441.074" y1="41.034" x2="476.207" y2="41.034" gradientUnits="userSpaceOnUse">
<stop stop-color="#E3EDFE"/>
<stop offset="1" stop-color="#D9E6FC"/>
</linearGradient>
<linearGradient id="paint11_linear_63_4478" x1="464.047" y1="25.6661" x2="499.179" y2="25.6661" gradientUnits="userSpaceOnUse">
<stop stop-color="#E3EDFE"/>
<stop offset="1" stop-color="#D9E6FC"/>
</linearGradient>
<linearGradient id="paint12_linear_63_4478" x1="459.827" y1="134.747" x2="487.038" y2="134.747" gradientUnits="userSpaceOnUse">
<stop stop-color="#E3EDFE"/>
<stop offset="1" stop-color="#D9E6FC"/>
</linearGradient>
<linearGradient id="paint13_linear_63_4478" x1="475.552" y1="146.628" x2="502.763" y2="146.628" gradientUnits="userSpaceOnUse">
<stop stop-color="#E3EDFE"/>
<stop offset="1" stop-color="#D9E6FC"/>
</linearGradient>
<linearGradient id="paint14_linear_63_4478" x1="493.357" y1="134.747" x2="520.569" y2="134.747" gradientUnits="userSpaceOnUse">
<stop stop-color="#E3EDFE"/>
<stop offset="1" stop-color="#D9E6FC"/>
</linearGradient>
<linearGradient id="paint15_linear_63_4478" x1="96.545" y1="322.426" x2="69.612" y2="445.606" gradientUnits="userSpaceOnUse">
<stop stop-color="#111C3A"/>
<stop offset="1" stop-color="#3457B4"/>
</linearGradient>
<linearGradient id="paint16_linear_63_4478" x1="201.949" y1="345.472" x2="175.015" y2="468.653" gradientUnits="userSpaceOnUse">
<stop stop-color="#111C3A"/>
<stop offset="1" stop-color="#3457B4"/>
</linearGradient>
<linearGradient id="paint17_linear_63_4478" x1="107.417" y1="340.628" x2="257.135" y2="340.628" gradientUnits="userSpaceOnUse">
<stop offset="0.369" stop-color="#2842A2"/>
<stop offset="0.71" stop-color="#3051AF"/>
<stop offset="1" stop-color="#3457B4"/>
</linearGradient>
<linearGradient id="paint18_linear_63_4478" x1="131.992" y1="259.796" x2="228.636" y2="394.463" gradientUnits="userSpaceOnUse">
<stop offset="0.004" stop-color="#2842A2"/>
<stop offset="0.337" stop-color="#3754B0"/>
<stop offset="1" stop-color="#5175C9"/>
</linearGradient>
<linearGradient id="paint19_linear_63_4478" x1="165.917" y1="428.954" x2="229.064" y2="428.954" gradientUnits="userSpaceOnUse">
<stop stop-color="#6C98E3"/>
<stop offset="1" stop-color="#3457B4"/>
</linearGradient>
<linearGradient id="paint20_linear_63_4478" x1="238.44" y1="421.983" x2="302.161" y2="421.983" gradientUnits="userSpaceOnUse">
<stop stop-color="#6C98E3"/>
<stop offset="1" stop-color="#3457B4"/>
</linearGradient>
<linearGradient id="paint21_linear_63_4478" x1="89.69" y1="129.502" x2="148.362" y2="129.502" gradientUnits="userSpaceOnUse">
<stop stop-color="#111C3A"/>
<stop offset="1" stop-color="#3457B4"/>
</linearGradient>
<linearGradient id="paint22_linear_63_4478" x1="88.343" y1="263.522" x2="54.545" y2="421.953" gradientUnits="userSpaceOnUse">
<stop stop-color="#111C3A"/>
<stop offset="1" stop-color="#3457B4"/>
</linearGradient>
<linearGradient id="paint23_linear_63_4478" x1="410.986" y1="259.592" x2="455.347" y2="439.148" gradientUnits="userSpaceOnUse">
<stop stop-color="#111C3A"/>
<stop offset="1" stop-color="#3457B4"/>
</linearGradient>
<linearGradient id="paint24_linear_63_4478" x1="13.15" y1="272.582" x2="487.336" y2="272.582" gradientUnits="userSpaceOnUse">
<stop stop-color="#E3EDFE"/>
<stop offset="1" stop-color="#B3CDFA"/>
</linearGradient>
<linearGradient id="paint25_linear_63_4478" x1="487.284" y1="263.155" x2="500.135" y2="263.155" gradientUnits="userSpaceOnUse">
<stop stop-color="#E3EDFE"/>
<stop offset="1" stop-color="#B3CDFA"/>
</linearGradient>
<linearGradient id="paint26_linear_63_4478" x1="128.807" y1="257.293" x2="212.138" y2="257.293" gradientUnits="userSpaceOnUse">
<stop stop-color="#2842A2"/>
<stop offset="1" stop-color="#3457B4"/>
</linearGradient>
<linearGradient id="paint27_linear_63_4478" x1="38.695" y1="243.352" x2="50.17" y2="243.352" gradientUnits="userSpaceOnUse">
<stop offset="0.004" stop-color="#2842A2"/>
<stop offset="0.337" stop-color="#3754B0"/>
<stop offset="1" stop-color="#5175C9"/>
</linearGradient>
<linearGradient id="paint28_linear_63_4478" x1="47.319" y1="247.549" x2="73.651" y2="247.549" gradientUnits="userSpaceOnUse">
<stop offset="0.004" stop-color="#2842A2"/>
<stop offset="0.337" stop-color="#3754B0"/>
<stop offset="1" stop-color="#5175C9"/>
</linearGradient>
<linearGradient id="paint29_linear_63_4478" x1="337.2" y1="227.984" x2="380.452" y2="227.984" gradientUnits="userSpaceOnUse">
<stop offset="0.004" stop-color="#E3EDFE"/>
<stop offset="0.269" stop-color="#F1F6FF"/>
<stop offset="0.604" stop-color="#FCFDFF"/>
<stop offset="1" stop-color="white"/>
</linearGradient>
<linearGradient id="paint30_linear_63_4478" x1="253.217" y1="207.552" x2="476.041" y2="65.091" gradientUnits="userSpaceOnUse">
<stop stop-color="#2842A2"/>
<stop offset="1" stop-color="#3457B4"/>
</linearGradient>
<linearGradient id="paint31_linear_63_4478" x1="248.454" y1="197.327" x2="462.938" y2="197.327" gradientUnits="userSpaceOnUse">
<stop offset="0.004" stop-color="#E3EDFE"/>
<stop offset="0.269" stop-color="#F1F6FF"/>
<stop offset="0.604" stop-color="#FCFDFF"/>
<stop offset="1" stop-color="white"/>
</linearGradient>
<linearGradient id="paint32_linear_63_4478" x1="296.109" y1="253.571" x2="406.378" y2="253.571" gradientUnits="userSpaceOnUse">
<stop offset="0.004" stop-color="#E3EDFE"/>
<stop offset="0.524" stop-color="#EFF5FE"/>
<stop offset="1" stop-color="white"/>
</linearGradient>
<linearGradient id="paint33_linear_63_4478" x1="334.133" y1="122.626" x2="412.398" y2="122.626" gradientUnits="userSpaceOnUse">
<stop stop-color="#FC7318"/>
<stop offset="1" stop-color="#FEB423"/>
</linearGradient>
<linearGradient id="paint34_linear_63_4478" x1="293.975" y1="90.623" x2="324.455" y2="90.623" gradientUnits="userSpaceOnUse">
<stop stop-color="#FC7318"/>
<stop offset="1" stop-color="#FEB423"/>
</linearGradient>
<linearGradient id="paint35_linear_63_4478" x1="290.564" y1="112.012" x2="308.254" y2="112.012" gradientUnits="userSpaceOnUse">
<stop stop-color="#FC7318"/>
<stop offset="1" stop-color="#FEB423"/>
</linearGradient>
<linearGradient id="paint36_linear_63_4478" x1="283.751" y1="154.787" x2="328.271" y2="154.787" gradientUnits="userSpaceOnUse">
<stop stop-color="#FC7318"/>
<stop offset="1" stop-color="#FEB423"/>
</linearGradient>
<linearGradient id="paint37_linear_63_4478" x1="419.052" y1="77.949" x2="590" y2="77.949" gradientUnits="userSpaceOnUse">
<stop stop-color="#3457B4"/>
<stop offset="0.222" stop-color="#3A5EB9"/>
<stop offset="0.552" stop-color="#4C72C8"/>
<stop offset="0.947" stop-color="#6893DF"/>
<stop offset="1" stop-color="#6C98E3"/>
</linearGradient>
<linearGradient id="paint38_linear_63_4478" x1="307.333" y1="14.368" x2="425.413" y2="42.034" gradientUnits="userSpaceOnUse">
<stop stop-color="#E9F1FE"/>
<stop offset="1" stop-color="white"/>
</linearGradient>
<linearGradient id="paint39_linear_63_4478" x1="308.371" y1="6.54702" x2="427.823" y2="20.535" gradientUnits="userSpaceOnUse">
<stop stop-color="#3457B4"/>
<stop offset="0.222" stop-color="#3A5EB9"/>
<stop offset="0.552" stop-color="#4C72C8"/>
<stop offset="0.947" stop-color="#6893DF"/>
<stop offset="1" stop-color="#6C98E3"/>
</linearGradient>
<linearGradient id="paint40_linear_63_4478" x1="299.421" y1="101.93" x2="401.175" y2="133.82" gradientUnits="userSpaceOnUse">
<stop stop-color="#E9F1FE"/>
<stop offset="1" stop-color="white"/>
</linearGradient>
<linearGradient id="paint41_linear_63_4478" x1="286.64" y1="103.653" x2="227.073" y2="14.7269" gradientUnits="userSpaceOnUse">
<stop stop-color="#E9F1FE"/>
<stop offset="1" stop-color="white"/>
</linearGradient>
<linearGradient id="paint42_linear_63_4478" x1="444.435" y1="143.54" x2="488.829" y2="143.54" gradientUnits="userSpaceOnUse">
<stop stop-color="#E9F1FE"/>
<stop offset="1" stop-color="white"/>
</linearGradient>
<linearGradient id="paint43_linear_63_4478" x1="239.133" y1="139.341" x2="283.527" y2="139.341" gradientUnits="userSpaceOnUse">
<stop stop-color="#3457B4"/>
<stop offset="0.222" stop-color="#3A5EB9"/>
<stop offset="0.552" stop-color="#4C72C8"/>
<stop offset="0.947" stop-color="#6893DF"/>
<stop offset="1" stop-color="#6C98E3"/>
</linearGradient>
<linearGradient id="paint44_linear_63_4478" x1="497.996" y1="147.495" x2="577.289" y2="170.164" gradientUnits="userSpaceOnUse">
<stop stop-color="#EEF4FE"/>
<stop offset="1" stop-color="white"/>
</linearGradient>
<linearGradient id="paint45_linear_63_4478" x1="544.454" y1="149.943" x2="558.982" y2="152.021" gradientUnits="userSpaceOnUse">
<stop stop-color="#FC7318"/>
<stop offset="1" stop-color="#FEB423"/>
</linearGradient>
<linearGradient id="paint46_linear_63_4478" x1="188.621" y1="169.363" x2="233.015" y2="169.363" gradientUnits="userSpaceOnUse">
<stop stop-color="#E9F1FE"/>
<stop offset="1" stop-color="white"/>
</linearGradient>
<clipPath id="clip0_63_4478">
<rect width="590" height="440.757" fill="white"/>
</clipPath>
</defs>
</svg>
